<svg xmlns="http://www.w3.org/2000/svg" viewBox="0 0 247.47 253.03">
  <defs>
    <style>
      .cls-1 {
        fill: #8e4739;
      }
    </style>
  </defs>
  <title>Asset 1</title>
  <g id="Layer_2" data-name="Layer 2">
    <g id="Resolve">
      <g id="Graphic">
        <g id="bear">
          <path class="cls-1" d="M121,252.12c-6-5.55-11.82-10.91-17.62-16.3-.65,1.79-1.4,3.86-2.21,6.12-7.23-2.51-11.11-7.76-14.42-13.82-1.3-2.36-3.35-5.49-5.55-6A65.19,65.19,0,0,1,49.84,206.1c.89,3.75,1.34,5.63,1.92,8.1-19.26-7.07-32.2-20.36-42.26-38.69l-2,7.19L5.85,183,0,165.55V151.66l9.66-33.57c-6-6.18-5.64-6.74,1.8-12.65A24,24,0,0,0,18.54,94.7C21,87.43,22.42,79.81,24,72.28a9.75,9.75,0,0,0-.74-4.88c-3.84-11-8.06-21.84-11.54-32.94a21,21,0,0,1-.13-11.36c4.94-17.57,18.56-30,38.76-18.26C54.55,7.26,58.68,9.76,63,12c8.77,4.56,17.65,7.62,28.06,7,7-.45,14.55,1.34,21.26,3.77,8.15,2.95,15.67,3.51,23.4-.36,7.91-4,16.33-3.92,24.87-3.67,3.56.11,7.5.18,10.65-1.17C180,13.73,188.52,9.24,197.12,5c7.76-3.83,15.9-7.56,24.12-2.59,7.92,4.78,13.78,11.86,15.14,21.53,1.68,11.91-2.71,23.26-7.4,33.19-4.92,10.43-5,19.43-1.87,29.52a40.16,40.16,0,0,1,1,4.5c1.33,6.88,3.9,12.74,10.79,16.08,3.89,1.88,4.28,5.28,1.33,8.59a18.58,18.58,0,0,1-3.42,2.52c10,21.6,16,42.46,4,64.25a4.15,4.15,0,0,1-1.2-2.47c-.28-1-.68-2-1.51-4.37-9.91,18.19-22.89,31.43-42,38.41.5-2.49.88-4.35,1.39-6.9-4.9,3.27-8.83,6.45-13.24,8.66a58.72,58.72,0,0,1-14.07,5c-4.63,1-7.44,3.1-9.4,7.39-2.84,6.25-7,11.46-14.21,13.52l-2.47-6.7c-3,3.46-5.34,6.73-8.25,9.43s-6.19,4.65-10.67,7.91l-2.11.57Zm74.12-120,6.44,15.24L188.93,141c8.09,14.36,8.88,28.89,1.7,38.76-2.09-4.55-4.24-9.26-6.79-14.84-1,10.49-1.82,19.6-2.75,29.5,16.91-7,22.29-20.35,22.89-37.15l4.29,8.32,1.62,0q1.25-8.24,2.5-16.46l1-.64c1.7,3.55,3.39,7.09,5.28,11.06,9.06-13.87,6.1-28.63,3.31-42.77L232.51,113l.11-1.62c-7.58-3.18-9.51-9.9-11.25-16.71-1.33-5.23-2.13-10.63-3.9-15.7-3.91-11.21-7.62-22.57-12.69-33.27-3.74-7.89-10.45-13.1-20.12-13.35-3.36-.09-6.7-1.61-10-2.66-13.47-4.28-26.87-5.25-40,1.14-7.52,3.66-14.72,3.27-22.18-.27-11.33-5.39-23.1-5.34-35-2.1-5.19,1.42-10.32,3.47-15.61,4-7.13.73-12.6,3.76-16.31,9.53S38.27,53.38,36,59.61c-3.28,9-5.39,18.47-7.86,27.78S25,106.57,13.59,112.71l12.3,4c-3.14,14.62-5.66,29.15,3.17,42.91l5.88-12.24,3.2,18.37,1.53-.39c1.46-2.71,2.93-5.42,5.06-9.38.76,22.44,10.32,37.59,21.8,37.25-.82-8.94-1.65-17.92-2.6-28.28l-7.21,15.8C51,167,49.73,154.23,58.82,141l-11.58,5.9c.53-2.38.73-4.9,1.67-7.11s2.67-4.3,5-8l-12,3.5c1.41-8.46,7.13-12.89,15.65-12.18,5.23,15.9,8.42,19.69,15.76,19.35-2.33-4.39-4.77-9-7.83-14.76l14.59,9,.71-1.16-6.36-7.92c16,2.78,17.18,2.63,19.61-1.27-4.95-.93-10.58-1.18-15.54-3.13-6.73-2.64-5.17-9.25-4.35-15.27L60.8,109.89c3.32-3,5.26-5.16,7.51-6.86,8-6,11.87-5.77,19.15,1.21,4,3.88,7.83,8,11.93,11.81,1.68,1.56,3.86,2.58,7,4.59,1.47-17-8.56-25.24-19.21-33.51l13.54,3.42c-2.79-6.65-5.12-12.23-7.46-17.81l.79-.63,10.94,9.33,1-.57L99.69,63.38l.77-.69c4.22,3.89,8.43,7.79,13.15,12.16.62-9.18-.92-16.72-7.37-24.13v7.71L88.7,48.85,90.6,57,72.66,51.54l6.39,8.09L44.51,64l-.75-1L63.27,51.49,52.47,42H75.19l-3.09-5.7.9-1.5L98.57,44.3,94.63,31.7c4.08,2.4,7.33,4,10.28,6.12C114,44.22,119.08,53.67,123.39,64c4.25-6.84,7.65-13.27,12-19a33.14,33.14,0,0,1,17.47-12.33l-3.55,11.52L175,34.83l.7,1.68-3.79,6.39c7.87-.72,15.1-3.86,22.22.11l-10.73,9.41c8.5,2.73,15.64,5.23,19.49,11.51l-34.33-4.25L174.05,53l-.55-1-16.38,5c.59-2.69,1-4.58,1.81-8.24l-17.51,9.87v-7.8c-6.25,7.51-8.22,14.95-7,24.52,2.64-2.92,4.38-5.17,6.45-7s4.54-3.5,7.43-5.68c-2.41,6.88-4.43,12.66-6.46,18.44l1.06.34,11-9.24.6.83c-2.32,5.5-4.65,11-7.38,17.49l13.63-3.19c-10.86,8.27-20.86,16.33-19.26,33.32,3-1.93,5.16-3,6.84-4.51,3.82-3.54,7.36-7.37,11.09-11,9.1-8.9,19.81-7,25.79,4.67L173.38,108c1.24,6.37,2.36,12.64-4.19,15.21-5.07,2-10.83,2.23-16.29,3.25,5.76,5.55,12.57,3.06,21,.35l-7,8.77.7,1.15,14.56-8.95-8.72,16.49c3.49-1.82,6.81-2.49,8.24-4.51,3.67-5.19,6.51-11,9.9-16.91,8.47.44,13.8,5.12,13.8,12.44Zm-56.68-4.68.16-1.49c-2.69-.12-5.65-1-8-.17-2.65,1-4.75,3.44-7.09,5.25-5.37-6.69-8.09-7.42-14.14-3.79l6.31,5.38c-18,.74-19.16,1.31-19.71,9.85H106.8c-9.87,6.22-15.32,13.72-15.87,23.48-.7,12.48-.51,25-.23,37.55.11,5.21,3.13,8.61,8.87,8.61,5,0,10,.15,15,0,3.4-.12,6-1.54,5.83-5.77-.75-.24-1.49-.75-2.14-.65-13.1,1.9-17.52-7.61-21.41-16.92s2-17.43,11.81-17.44c10.8,0,21.61.22,32.4-.1,4.85-.14,7.48,1.9,9.33,6,5,11.21-5.37,27.91-17.7,28.32-1.8.06-3.59.3-5.65.49.52,4.55,2.92,6,6.36,6.07,4.43.13,8.88.34,13.3.08,7.86-.45,10.2-2.78,10.59-10.69.33-6.55.12-13.12.27-19.67.34-15-.19-29.6-14.76-39.62h9.64c-2.43-12.43-11.77-9.1-20.82-9.49Zm70.75-97.6c8.56,5.25,10.05,11.65,7.81,19.61-.54,1.88.92,4.32,1.83,8,6.21-10.2,8.19-19.28,5.46-30l5.65,4.26C231,23,227.51,17.09,222,12.18s-11.73-5-17.77-1.77C196.73,14.5,189.59,19.31,182,24c6.37,3.26,11.92,1.81,17.31-1.86a47.69,47.69,0,0,1,8.36-5c4.59-1.88,8.68.1,10.91,4.69l-7.66.85,8.18,6.23-.82,1ZM29.6,55.83c.46-2.13,1.76-4.49,1.23-6.33-2.28-8-.76-14.36,7.78-19.61H29.15l-.52-1.17L37,22.66l-8.66-1A14.24,14.24,0,0,1,30,19.44c5.39-4.46,9.37-4.18,17.06,1.62,5.71,4.3,11.57,6.48,18.57,3-6.66-4.26-13-8.57-19.56-12.4a26,26,0,0,0-9.2-3.14c-10.8-1.53-22.12,12.72-18,22.7l4.64-3.77C20.84,38.24,22.74,47.33,29.6,55.83Zm76.1,137.24c1.57,4.56,3.81,7,8.48,6.85,6.55-.19,13.11-.13,19.67,0,4.61.08,6.81-2.32,7.92-6.64L129,195.11l-1.19-1.8c1.62-2.31,2.78-5.68,5-6.66s6.52-2.21,7.94,2.59c.08.26,3.45.23,3.74-.38a10.18,10.18,0,0,0,1-6c-.23-1.11-2.51-2.51-3.89-2.53-11.75-.21-23.51-.14-35.27-.1-.93,0-2.31.1-2.69.68-.88,1.33-1.8,3-1.69,4.49a7.83,7.83,0,0,0,2.35,4.22c.36.39,2.72-.15,2.88-.66,1.52-4.93,5.75-3.3,8-2.28s3.07,4.45,4.54,6.83l-1.26,1.62Zm1.38,23.1c3.71,4.91,13.61,6.37,27.15,4.54,2.15-.29,4.11-1.87,6.16-2.85l-.73-1.69ZM90.49,121.79c.77-.57,4.22-2.05,4.12-3.23-.31-3.76-3.06-2.3-5.58-1.67-3.06.77-4.51-.93-4.61-4.19,0-1.23-1.4-2.42-2.15-3.63-.81,1.26-2.23,2.47-2.32,3.77C79.58,118.28,83.34,121.88,90.49,121.79ZM168,111.9l-2.55-2.81c-.81,1.15-2.26,2.26-2.33,3.45-.24,4.36-2.33,5-6.13,4.15-1.16-.27-2.66.93-4,1.45.9,1.06,1.59,2.61,2.73,3.1C161.53,123.74,167.73,119.62,168,111.9Z"/>
          <path class="cls-1" d="M199.34,69c3,6,6,12.09,9,18.17,4,8.14,7.91,16.32,12,24.71l-10.63-2.35c4.23,8.67,11.14,17,3.6,26.86-1.75-4.46-3.09-8.94-5.23-13-2.23-4.22-5.23-8-7.9-12l-2.44,1.9,6.22-1.11c-2.49-5.13-5-10.26-8.14-16.81l9,4.47,1.55-.92q-4.29-14.55-8.57-29.1Z"/>
          <path class="cls-1" d="M43.89,112.15l7.22,1.46C41.67,119,35.88,126,35.39,137.27c-4.44-4.8-5.12-9.73-3.68-14.48,1.35-4.49,4-8.56,6.34-13.22l-10.69,2.52C34.47,97.63,41.5,83.3,48.54,69l1.49.75Q45.71,84.26,41.4,98.79l1.37,1.11,9.08-4.46Z"/>
          <path class="cls-1" d="M53.84,104.17C60,95.66,59.77,86.1,58.76,75.78,68.15,90.11,65.64,97.33,53.84,104.17Z"/>
          <path class="cls-1" d="M188.54,76.47c-.65,9.71-.57,19.21,6.46,28.58C181.87,97.73,180.3,89.72,188.54,76.47Z"/>
        </g>
      </g>
    </g>
  </g>
</svg>
