<svg xmlns="http://www.w3.org/2000/svg" viewBox="0 0 255.07 253.1">
  <defs>
    <style>
      .cls-1 {
        fill: #6194b3;
      }
    </style>
  </defs>
  <title>Asset 3</title>
  <g id="Layer_2" data-name="Layer 2">
    <g id="Clarity">
      <g id="graphic">
        <g>
          <path class="cls-1" d="M0,224.75c19.3-13,35.37-28.23,47.25-48.11-8.15.36-12.87,2.76-25.42,12.72a87.51,87.51,0,0,1-11-34.09C5,105.47,24.35,66.24,62.4,35.35,82.77,18.82,105.46,6.46,131.29.54,132.11.36,133,.3,135,0c-1.54,3.05-2.21,5.58-3.79,7.24A105.7,105.7,0,0,1,118.66,19c-10,7.61-20.43,14.79-30.28,22.9l56.78-26.73c-3.49,9.62-7.71,18.83-16.51,24.26-12.41,7.66-25.32,14.5-38,21.68a17.14,17.14,0,0,0-4.94,3.55l29-9C106,75.91,86.86,81.93,71.2,92.4L95,86.19c-7.52,15.22-20.75,21.56-33.17,29.42,2.46-.41,4.92-.77,7.36-1.25,2.64-.52,5.25-1.15,8.71-1.91-1.14,7.78-5.91,12.76-11.43,18.62,9.46,4.59,12.47,13.79,17.42,21.81,4.78,7.75,12.78,11.74,22.26,11.39,1.07-4.1,1.69-7.85,3-11.32,1.62-4.2,4.24-7.78,9.54-7.18,4.91.56,7.7,3.5,8.12,8.58,5.29-3.66,6.73-7.83,4.62-13-1.6-3.91-3.17-7.84-4.85-11.72-3.69-8.47-13.79-13.68-22.8-11.4-4.25,1.08-8.29,3-13.22,4.8,2.59-4.25,4.82-7.85,7-11.49,10.66-17.82,20.3-36.12,26.32-56.13a7.29,7.29,0,0,1,3-4,280.47,280.47,0,0,1,109.15-32.1,31.68,31.68,0,0,1,3.34.16c-3,6.36-7.29,10.72-13.42,13-11.64,4.25-23.38,8.25-35,12.84l64.07-12.72c-4.6,8.38-9.38,14.47-17.3,16.82-14.5,4.28-29.15,8-43.74,12A21.39,21.39,0,0,0,188,63.62l56.92-6.24c-12,20.55-33.08,18.36-51.18,24.09h32.06l.3,1.91C217.79,94.92,205.17,96.66,191,97.46l14.15,5.32c-6.95,10.35-17.48,11.3-29.26,13l14.86,4.28c-4.24,7-8.49,8.92-26.73,12.23l4.67,3.93L151.94,149l3.13,2.38c-15.38,18.61-35.75,29.7-58.83,39.37l30.44,19.06c0-6.06-.43-10.71.19-15.22a8.51,8.51,0,0,1,4.15-5.48c1.34-.67,3.8.87,5.65,2.05-4.08,1.39-6.53,2.63-4.32,7.4,1,2,.16,4.9.16,9,2.63-5.35,4.17-9.75,6.8-13.36,1.58-2.18,4.7-3.68,7.41-4.4,1.22-.32,3.14,2,4.51,3.6-9.26-.41-6.17,9.77-11.63,12.37,5.76-1.81,10.77-8.84,17.34-2-11.1,6.41-23.43,10.1-29.23,22.7-2.71,5.89-3.15,5.69-1.59,8.39-5.82,1.08-7.88-1.09-6.05-6.48,1-3.05,2.28-6,3.68-9.69l-7.41-1.18c-1,8.23-8.52,3.57-13,6.89l13.16,14c-3.78,2.43-7.13,5.09-10.88,6.91-20.8,10.13-42.2,9.43-63.73,2.79A114.64,114.64,0,0,1,0,224.75Zm80.48-35.91c-1.79.66-4.56.86-5.16,2.1a11,11,0,0,0-.83,7.45c1.41,4.31,3.83,8.3,5.83,12.42-2.63-.94-4.23-3.2-6.25-3.66-4.92-1.11-4.89-3.61-3.16-7.79-2.07.51-4.54,1.12-5.12,2.51a6.46,6.46,0,0,0,.82,5.71c2.83,3,6.33,5.47,10.21,8.67l-9.64.57c.11,1.16.56,1.43,1,1.63,8.91,3.62,18.49,6.29,21.94,17.1.34,1.09,3.15,2.31,4.4,2,1.63-.46,2.85-2.41,3.57-3.09-2-1.67-3.64-2.47-4.33-3.77A49.9,49.9,0,0,1,91,223.13c-3.65-10.76.11-20.95,1.69-31.7-10.58-.53-5.55,9.72-9.07,14.46C85.08,200,75.32,196.39,80.48,188.84Z"/>
          <path class="cls-1" d="M111.32,130.78,119,137.9l-.44,1.43c-2.46-.21-5.83.48-7.13-.86-1.46-1.5-1-4.82-1.44-7.35Z"/>
        </g>
      </g>
    </g>
  </g>
</svg>
