<svg xmlns="http://www.w3.org/2000/svg" viewBox="0 0 149.5 272.02">
  <defs>
    <style>
      .cls-1 {
        fill: #859e46;
      }
    </style>
  </defs>
  <title>Asset 2</title>
  <g id="Layer_2" data-name="Layer 2">
    <g id="Reason">
      <g id="Graphic">
        <g id="Gorilla">
          <path class="cls-1" d="M132.23,133.56c-32-4.45-59.1,6.69-84.42,24l.34,1.08c1-.46,2-.9,3-1.4,19.38-9.84,39.76-16.32,61.54-17.59,5.26-.31,10.61.61,15.88,1.26,1,.13,2.69,1.55,2.75,2.46.43,6.83.46,13.67-2.54,20.58-.77-1.93-1.36-3.44-2.22-5.63-.52,1-.91,1.45-.91,1.85.18,10.16-5.42,16.59-14,20.69-11.56,5.55-23.81,6.86-36.5,5.28-10.29-1.29-20.1-3.78-28.64-10-5.18-3.75-8.91-8.49-10.13-14.94A12.22,12.22,0,0,0,35,158.67l-2.7,8.17a47.12,47.12,0,0,1,.51-31.65l-1.09-.59-2.65,4.14a27.3,27.3,0,0,1,7.29-20.13A56.23,56.23,0,0,1,45.27,111c1.9-1.41,3.09-2.23,2.56-5.24C46.48,98,48.42,91,54.77,85.65c5.39-4.51,11.91-4.49,17.18.16,7.25,6.38,10.14,6.37,17.55-.11a12.56,12.56,0,0,1,16.88-.25c6.56,5.34,8.46,12.47,7.16,20.4-.45,2.72.28,3.75,2.3,4.94a34.79,34.79,0,0,1,16,20.37A17,17,0,0,1,132.23,133.56ZM80.3,113.25c5.11-2.53,10.21-4.88,15.13-7.53a37.8,37.8,0,0,0,7.95-5.41,5.84,5.84,0,0,0,.88-8,6,6,0,0,0-8.23-2c-2.48,1.33-4.44,3.73-6.44,5.83-1.35,1.41-2.2,3.29-3.57,4.66-3.77,3.77-7.64,3.78-11.41,0-1.37-1.37-2.23-3.25-3.57-4.66-2-2.1-4-4.51-6.43-5.84a6,6,0,0,0-8.23,2,5.87,5.87,0,0,0,.86,8.06,34.74,34.74,0,0,0,7.56,5.22C69.86,108.25,75.08,110.67,80.3,113.25Z"/>
          <path class="cls-1" d="M30.35,185.43C46,197.17,63.62,202.14,83.06,202c-2.73.48-5.44,1.12-8.19,1.39-3.07.31-6.18.33-9.27.4-2.88.06-5.76,0-9.11,0,11.77,9.52,59-.05,75.08-14.73,6,9.07.69,27.58-8.95,40.37.72-3.68,1.39-6.47,1.8-9.29a28.65,28.65,0,0,0,.11-8.68l-15.47,25.36-1.14-.59c3-7.29,6.7-14.45,5.47-23.23-.71.55-1.16.71-1.23,1-2.13,9-7.43,16-13.85,22.27-9.72,9.5-15.08,21.18-17.63,34.34a8.32,8.32,0,0,1-.44,1.4c-1.12-5-2.09-10.58-3.65-16a32.55,32.55,0,0,0-13.84-18.55q-4.23-2.78-8.53-5.44C45.27,226.52,38.74,219,35.5,208.92c-2.4-7.43-4.23-15-6.31-22.56Z"/>
          <path class="cls-1" d="M7.08,50.07C8.83,28,21.76,15.29,42,8.67l-.26-1.08L28.46,9.69C34.54,4.6,40.88.67,48.92.07,57.27-.56,63.75,3.18,70,9.74c.25-3.12.41-5.21.59-7.44,8.35,5.26,10,28.09,4.4,39-19.5-14.43-30.3-16.68-46.77-10,.87-1.06,1.7-2.16,2.63-3.16A18.17,18.17,0,0,0,33.57,25C19.52,27.82,11.67,37.16,7.08,50.07Z"/>
          <path class="cls-1" d="M29.44,105.37c-19.68,48.12-20.86,94.81,8.12,139.9-20.24-20.49-27.27-46.42-29.85-74.19l-1.13-.34c-1.2,3.34-2.57,6.64-3.58,10-1,3.59-1.76,7.27-2.59,10.81C-2.28,158.71,8.41,130.34,29.44,105.37Z"/>
          <path class="cls-1" d="M59.82,59.73c-3-8.29-8.72-12.67-16.14-15.8,10.59-2.39,32.44,9.84,34.82,18.92-2.83-2.32-5.23-4.56-7.91-6.37s-5.53-3.1-8.8-4.89l4.47,17.28C51.21,56.52,35.88,51.79,18.38,59.68l8.28.68c-3.64,3.89-8,7.23-3.87,11.91,2.89,3.26,6.87,5.57,9.81,7.86-9-.49-15-4.34-17.44-12.76-1.51,3.09-2.58,5.3-3.59,7.36-3.49-11.3,6-23.59,19.17-24.64A38.61,38.61,0,0,1,55.87,57C57,57.69,58.06,58.49,59.82,59.73Z"/>
          <path class="cls-1" d="M98.93,50.89l-16.33,11c1.33-8,22.69-19.82,34.29-18-7.39,3.21-13.15,7.56-15.79,14.76,5-2.34,9.76-5.29,15-6.88a40.17,40.17,0,0,1,14.1-1.51c12.93.88,20.7,11.24,19.11,25.13-1.22-2.55-2.3-4.82-3.85-8.05C142.88,78,134.73,78.69,127.22,80.39c14.24-9.1,15.13-11.31,6.72-19.92l7.83-.79c-4-3.78-14.44-5.2-24-3.21-8.55,1.78-15.87,6-23.17,11.13C95.93,62.52,97.24,57.43,98.93,50.89Z"/>
          <path class="cls-1" d="M85,43.74c7.06-13.16,8.47-26.51,6.19-40.45,5.25,8.41,7.28,17.36,4.46,27.19l1.5.39,5-12.41C105.46,27.93,94.93,40.35,85,43.74Z"/>
          <path class="cls-1" d="M143.15,104.55c-3.88-7.69-8.57-14.41-18.43-15.85v9.61c-1.74-3.46-2.93-7.77-5.62-10.69a27.74,27.74,0,0,0-10.95-7.11c-3.94-1.38-8.51-1-12-1.28,6.59-4,13.46-2.09,26.32,8.24-.25-1.25-.44-2.24-.65-3.3C132,85.06,141.13,93.68,143.15,104.55Z"/>
          <path class="cls-1" d="M21.71,104c2.14-10.54,10.18-18.15,21.12-20-.2,1.2-.39,2.28-.73,4.27,7.73-8.92,16.28-13.2,27.35-8.83-6.54-.43-13-.18-18.87,3.26-6.15,3.61-8.37,9.87-10.55,17v-11C30.42,90,25.72,96.57,21.71,104Z"/>
          <path class="cls-1" d="M124.57,70.44c-.62-1.34-2-3.52-1.69-3.76a60.8,60.8,0,0,1,6.75-4.48c1.3,6.8-1.73,11.81-7.41,13.43-6,1.71-11.35-1.2-13.54-7.41,1.79-1.6,2.75-1.44,3.93,1C115.3,74.73,120.42,75.07,124.57,70.44Z"/>
          <path class="cls-1" d="M30.73,62.94c7.21,1.45,8.5,3.38,5.11,7.27,4.25,5,9,4.48,12.36-1.22.53-.89,2-1.22,3.28-1.39C50,74.12,44.7,77.18,38.85,75.75,32.84,74.27,29.68,69.41,30.73,62.94Z"/>
          <path class="cls-1" d="M114.09,25.67c-1.54,5.95-5.14,8.5-9.24,10.16,1.17-4.64,2.36-9.37,3.55-14.07.5,2.13,1.06,4.47,1.71,7.21Z"/>
        </g>
      </g>
    </g>
  </g>
</svg>
