<svg xmlns="http://www.w3.org/2000/svg" viewBox="0 0 100.85 118.98">
  <defs>
    <style>
      .cls-1 {
        fill: #4c4c4c;
      }
    </style>
  </defs>
  <title>eagle-scratch</title>
  <g id="Layer_2" data-name="Layer 2">
    <g id="Clarity">
      <g id="Scratch">
        <g>
          <path class="cls-1" d="M45.9,99.73c.1.86.21,1.72.27,2.59a3.93,3.93,0,0,1,0,1.37,10.57,10.57,0,0,0-.77,3c0,.67-1,1.34-1.53,2,1.85.34,2,.71,1.19,2.64s-1.37,3.92-2,5.9a11.46,11.46,0,0,0-.19,1.76,12.22,12.22,0,0,0,1.49-1.1,45.32,45.32,0,0,0,7.25-11c2.5-5.08,4.9-10.22,7.5-15.25a46.86,46.86,0,0,1,3.55-5.13c-.87-1.33-.06-2.13,1-3.15a11.22,11.22,0,0,0,2.1-3.47c.49-1,.7-2.23,1.11-3.33a4.73,4.73,0,0,1,.77-1,24,24,0,0,0,2-2.7c.23-.39,0-1.07-.1-1.61s-.45-1.39-.3-2c.37-1.43,1.12-2.77,1.42-4.21A3.51,3.51,0,0,1,72.05,63,26.53,26.53,0,0,0,76,59a3.71,3.71,0,0,0,.21-4.51c-.2-.32,0-.94.11-1.38a4.63,4.63,0,0,1,.56-1l-.33-.34c-.38.3-1,.53-1.11.91-.52,1.38-1.31,1.43-2.23.82L74.43,51l-.27-.22a34,34,0,0,0,3.51-1.65c.32-.19.4-1,.4-1.46,0-1.38-.12-2.75-.08-4.12,0-.48.41-.94.58-1.42a12.54,12.54,0,0,0,.33-1.24c.13-.49.26-1,.41-1.47a4.24,4.24,0,0,1,.28-.62,63.11,63.11,0,0,1,3.13-6.46,32,32,0,0,1,4.48-5.62,50.35,50.35,0,0,1,5-3.89c.17-.13.23-.39.46-.82L91,22.33l-.28-.41,10.12-8.45-.07-.23a5.51,5.51,0,0,0-1.17.37c-4.39,2.59-9,4.95-13.09,7.91-2.54,1.82-4.42,4.57-6.58,6.92a46.93,46.93,0,0,1-3.34,3.68,40.4,40.4,0,0,1-4.18,2.79l2,.27c-1.6,1.87-2,4.48-4.77,5-.51.11-.94.62-1.57,1.06l1.2.78c-3.1,3.72-3.3,8.43-4.43,12.78a63.53,63.53,0,0,1-6.24,14.69c-.64,1.14-1.48,2.09-1.29,3.54a1.52,1.52,0,0,1-.55,1.24c-1.24.79-.76,1.93-.85,3a49.5,49.5,0,0,1-.74,5.13c-.26,1.34-.65,2.66-1,4a12.55,12.55,0,0,1-.5,1.28c-.52,1.28-1,2.59-1.57,3.84-.74,1.53-1.87,2.85-2.31,4.57-.09.35-1.31.48-2,.58s-2.3,1.49-2.23,2.18c0,.29.41.54.63.81Z"/>
          <path class="cls-1" d="M12.82,62.85c0,2.1.09,4.15-.05,6.18a7.17,7.17,0,0,1-1,2.25c-.1.21-.35.43-.33.61.37,2.71-2.2,4.68-1.83,7.38,0,.23-.16.69-.31.72-1.48.3-1.68,1.52-2.1,2.65-.16.41-.73,1-1,1-2.08-.34-2.82,1.07-3.61,2.63H3.71c0,1.2.07,2.37.16,3.53s-.07,1.42-1.29,1.67a7.38,7.38,0,0,1-.92,6.84.83.83,0,0,0-.21.71c.75,1.79.07,3.2-1.07,4.53A1.77,1.77,0,0,0,0,104.7a3.85,3.85,0,0,0,.84-.41A33.86,33.86,0,0,0,9.61,92.9c2-4.12,3.65-8.42,5.7-12.51a81,81,0,0,1,4.37-7c.17-.27.43-.58.42-.86-.05-1.51.93-2.46,1.65-3.6a43.72,43.72,0,0,0,2-4.2c.34-.66.89-1.21,1.24-1.87.52-1,1-2.05,1.47-3.17a6.36,6.36,0,0,1-1.21-.83c-.27-.32-.6-.84-.52-1.18.31-1.32.79-2.61,1.17-3.91a1.68,1.68,0,0,1,1.67-1.41,2.47,2.47,0,0,0,1.52-1A44.59,44.59,0,0,0,32,47.24a3.38,3.38,0,0,0,.16-3.75c-.27-.47.2-1.38.37-2.29a14.53,14.53,0,0,1-1.78,1.48,4.77,4.77,0,0,1-1.5.34c0-.61-.32-1.4,0-1.8a6.84,6.84,0,0,1,4.85-2.94c0-.2,0-.42-.12-.54-1.41-1.79-1.5-3.5.18-5.19.21-.21.47-.72.39-.83-.83-1,.07-1.64.46-2.35.74-1.32,1.54-2.6,2.33-3.93.24.58.48,1.32,1.05.26,1.06-1.95,2-3.94,3.14-5.87a8.23,8.23,0,0,1,1.55-2,50.05,50.05,0,0,0,5.22-5.75c1.9-2.42,4.47-4.33,6.85-6.33a34.89,34.89,0,0,1,4.24-2.85,8.3,8.3,0,0,1,1.86-.55L61.62,0c-1.9.78-3.91,1.16-5.36,2.27Q46,10.12,36,18.32c-1.65,1.36-2.82,3.29-4.26,4.91a11.28,11.28,0,0,1-1.54,1.24c.34,1.45-.42,3.49-3.95,5a1.93,1.93,0,0,1-.4,3.13,3.43,3.43,0,0,0-1.69,2.24c-.73,2.25-1.29,4.55-2,6.8C21,45.3,19.79,49,18.5,52.63a19,19,0,0,1-1.63,2.81c-.18.31-.45.7-.39,1,.3,1.34-.44,2-1.52,2.32-.85.26-1,.72-.76,1.49a4.55,4.55,0,0,1,.22,1C14.64,62.92,14.26,63.24,12.82,62.85Z"/>
          <path class="cls-1" d="M28.34,97.67c2.85-2.29,5.17-4.58,6.34-7.88a17.28,17.28,0,0,1,1.92-4,11.22,11.22,0,0,0,1.91-4c.35-1.54,1.46-2.93,2.32-4.34.46-.76,1.15-1.38,1.63-2.14.61-1,1.08-2,1.65-3,.36-.62.85-1.16,1.21-1.78a3.77,3.77,0,0,0,.44-1.23A20,20,0,0,1,46,67.18a4.72,4.72,0,0,1,.79-1.34c2.42-3.46,4-7.36,5.84-11.12a5.75,5.75,0,0,0,.54-4.38,11.53,11.53,0,0,1-.05-3.2l2.73-1.22-.69-2.08,1.92-.45c-1.9-1.79-.41-3.7-.5-5.53,2.15-.86.82-3.52,2.48-4.69,1.5-1.07,2.83-2.37,4.32-3.45A2.75,2.75,0,0,1,65,29.57a8.2,8.2,0,0,0,1.92.24c.56-.11,1-.32.67-1.41-.31-.9.48-2.26,1-3.33.31-.69,1.45-1,.76-2.12,0-.08,1.06-.84,1.59-1.33a11,11,0,0,0,.93-1.1l-.24-.33h2c-1.62-2.55.69-3.61,1.85-5.11l-.2-.39c-1.36.49-2.75.92-4.08,1.46A42.54,42.54,0,0,0,54,28.89c-.41.51-1.23.69-1.85,1-.42.24-1,.4-1.21.77-.56,1.09-.92,2.28-1.41,3.4a2,2,0,0,1-.66.68C47.29,36,45.69,37.24,45,39.33a5.5,5.5,0,0,1-1.39,1.77,4.07,4.07,0,0,0-1.47,2.61c-.07.71-.95,1.35-1.74,2.38l2.1-.71L42,47.82c.8,1.4.48,2.12-1.31,2.61a3.17,3.17,0,0,0-1.47,1c-.75.92-1.36,1.94-2,2.92-.79,1.17-1.26,2.3-.12,3.59.35.41.33,1.15.55,2l1.43-1.49,1.68,1-1.57,1,1.36,1c-.65.43-1.54.73-1.57,1.09,0,.54.61,1.1.83,1.7.61,1.63,0,3.77-1.26,4.51,2.42,1.65.61,3.36-.08,4.88a14.68,14.68,0,0,1-3.17,4.07V73.8l-.23,0c-.59,1.36-1.17,2.72-1.77,4.07a10.08,10.08,0,0,1-.68,1.25c-1.21,2-1.21,1.94.18,3.47a40,40,0,0,0-1.06,4c-.26,1.47-.5,2.88-1.72,3.91a1.19,1.19,0,0,0-.34.62C29.24,93.17,28.84,95.22,28.34,97.67Z"/>
        </g>
      </g>
    </g>
  </g>
</svg>
