<svg id="Layer_1" data-name="Layer 1" xmlns="http://www.w3.org/2000/svg" viewBox="0 0 109.61 114.85">
  <defs>
    <style>
      .cls-1 {
        opacity: 0.15;
      }

      .cls-2 {
        opacity: 0.89;
      }

      .cls-3 {
        fill: #4c4c4c;
      }
    </style>
  </defs>
  <title>lion-scratch-opacity</title>
  <g class="cls-1">
    <g id="Vigor">
      <g id="beeldmerk">
        <g id="Vigor_horizontal" data-name="Vigor horizontal" class="cls-2">
          <g>
            <path class="cls-3" d="M19.19,88.83l2.28-.29a7.78,7.78,0,0,0-.16-1.39.67.67,0,0,1,.46-.82A1.92,1.92,0,0,0,23,84.88,2.54,2.54,0,0,1,24.86,83a2,2,0,0,0,1.51-1.34,2.79,2.79,0,0,1,2-1.84c1-.29,1.07-.33.84-1.23a1.77,1.77,0,0,1,.66-2,2.14,2.14,0,0,1,.52-.32A14.75,14.75,0,0,0,33,75.13c.49-.35.62-1.08.91-1.64a.28.28,0,0,0,0-.18c-.19-1,.35-1.54,1.46-1.94a3.65,3.65,0,0,0,1.9-1.54A17.12,17.12,0,0,1,41.73,65a1.9,1.9,0,0,0,.5-1.19,1.21,1.21,0,0,1,.71-1l2-1c1-.49,1.74-1,1.79-2.16a2.5,2.5,0,0,1,1.82-2.36c1-.39,1.8-1.08,1.69-2.18a1.29,1.29,0,0,1,.88-1.37,4.9,4.9,0,0,0,1.26-.85,2.52,2.52,0,0,0,.78-1.07c.32-1.28,1.59-2,2.4-2.93.21-.25.86-.24,1.31-.31a2.16,2.16,0,0,0,1.7-1.42.53.53,0,0,0,0-.25c-.22-1,.1-1.78,1.44-2a.73.73,0,0,0,.44-.45A2.27,2.27,0,0,1,62.15,43a1.37,1.37,0,0,0,.69-.63C63.47,41.2,64,40,64.67,39c.21-.32.86-.41,1.27-.65a3.16,3.16,0,0,0,.77-.64,5.22,5.22,0,0,0,.37-.75,2.18,2.18,0,0,1,1.86-1.38,1.52,1.52,0,0,0,1.6-1.22c.11-.56.67-.74,1.18-.92a.73.73,0,0,0,.59-.86.13.13,0,0,0,0-.06c-.18-1.24-.16-1.24,1.25-1.71A1.78,1.78,0,0,0,74,30.6c.72-.59,1.47-1.16,2.11-1.8a1.2,1.2,0,0,0,.18-.94c-.08-.7.2-1.12,1-1.26a1.27,1.27,0,0,0,1.11-.93,3.1,3.1,0,0,1,2.52-2.21,1,1,0,0,0,.85-.75c.2-.67.39-1.34.64-2,.08-.2.37-.35.56-.51h.14c1.42-.25,1.39-.25,1.7-1.46A2.53,2.53,0,0,1,86.45,17c.84-.35,1.67-.74,2.47-1.17a2.2,2.2,0,0,0,1.4-2.29c-.06-.43.16-.71.63-.88.29-.1.53-.3.82-.41a3.57,3.57,0,0,0,2.32-1.92c.17-.42.81-.7,1.19-1.08A19,19,0,0,0,98.92,4.8c.26-.51,1.1-.82,1.7-1.18a1.57,1.57,0,0,1,.71-.13,1.56,1.56,0,0,0,1.41-.9,3.4,3.4,0,0,1,1-1c.69-.52,1.44-1,2.31-1.6-.17.93.17,1.8-.62,2.5a10.32,10.32,0,0,1-.8.82,4.44,4.44,0,0,0-1.26,2c-.63,1.28-1,2.73-2.82,3.41a5.89,5.89,0,0,0-3.35,2.85,5.35,5.35,0,0,0-.41,1.57,1.16,1.16,0,0,1-.65.89c-1,.6-1.86,1.26-2.77,1.91a1.52,1.52,0,0,0-.7,1.39,1.34,1.34,0,0,1-.87,1.33,1.1,1.1,0,0,0-.69,1,1.65,1.65,0,0,1-1,1.44c-.46.26-.7.81-1,1.21a5,5,0,0,1-.73.73c-.23.18-.54.28-.8.45a2.87,2.87,0,0,0-1.63,2c-.25,2.25-1.77,3.68-4.13,4.54a2,2,0,0,0-.76.62,19.59,19.59,0,0,0-2.31,4.18,3.67,3.67,0,0,1-.84,1c-.19.19-.5.3-.65.5a4.57,4.57,0,0,1-2.35,1.58c-.72.21-.57.82-.61,1.28a1.07,1.07,0,0,1-.61.92,7.72,7.72,0,0,1-1,.59A2.28,2.28,0,0,0,71,42.78a5.5,5.5,0,0,1-.64,1.85A3.37,3.37,0,0,1,68.51,46a1.5,1.5,0,0,0-.78.73,2,2,0,0,1-1.46,1.35.79.79,0,0,0-.66.78c0,1.3-.93,2-2.3,2.21-.89.14-1.23.5-1.34,1.25a3.38,3.38,0,0,1-1.68,2.54,2.57,2.57,0,0,0-.8.87,5.42,5.42,0,0,1-2.65,2.33A2.76,2.76,0,0,0,55,60a1.48,1.48,0,0,1-1.12,1.1c-1.39.44-1.9,1.1-1.8,2.39.05.7-.19,1-1,1.28A2.83,2.83,0,0,0,48.94,67a1,1,0,0,1-.73.77,5.92,5.92,0,0,0-2.78,2.36,28.61,28.61,0,0,1-3.13,3,2.84,2.84,0,0,0-.61.92,6.56,6.56,0,0,0-.14.87,2.28,2.28,0,0,1-1.82,2A3.69,3.69,0,0,0,37,78.75a2.83,2.83,0,0,0-.36,1.13c0,1-.81,1.5-1.71,1.9-.47.22-1.17.25-1.41.57s-.1.89-.06,1.34-.1.57-.52.61a2.49,2.49,0,0,0-2.45,2.33,1.16,1.16,0,0,1-1,1.07,1.33,1.33,0,0,0-1.14,1.08,3.61,3.61,0,0,1-.36.89,2.47,2.47,0,0,1-1.91,1.39.87.87,0,0,0-.83.68A3.28,3.28,0,0,1,23.2,94,1.81,1.81,0,0,0,22,95.55a1.39,1.39,0,0,1-.5.92c-1,.7-2.13,1.3-3.17,2a2,2,0,0,0-.65.74c-.23.43-.32.91-.57,1.33a2.51,2.51,0,0,1-2,1.11c-.47.06-.69.25-.73.7-.1,1.1-.12,1.13-1.39,1.34-.59.1-.84.29-.8.82a1.65,1.65,0,0,1-1.14,1.77,1.87,1.87,0,0,0-.74.94,1.11,1.11,0,0,1-1.08.69,1.51,1.51,0,0,0-1.67,1.17c-.08.3-.44.56-.71.81s-.92.57-1.07,1a3.28,3.28,0,0,1-2.44,1.81,3.15,3.15,0,0,0-1.93,1.29,4.72,4.72,0,0,1-1.2.93L0,114.7c.31-.54.64-1.08.93-1.63a6.52,6.52,0,0,0,.5-1.19c.11-.36.08-.75.19-1.11a1.87,1.87,0,0,1,1.89-1.37c.75,0,1.1-.33,1-1a1,1,0,0,1,.77-1.19h0c1.16-.41,1.28-1.4,1.62-2.25a9.72,9.72,0,0,1,.77-2,5.15,5.15,0,0,1,1.62-1.39,4.65,4.65,0,0,0,1.63-1.78,7.67,7.67,0,0,1,1.75-1.89c.44-.36.76-.67.64-1.21a1.72,1.72,0,0,1,.77-1.79c.79-.65,1.55-1.33,2.31-2a2.4,2.4,0,0,0,.64-.74A1.63,1.63,0,0,1,18.61,91c.79-.06,1-.4.8-1A9.28,9.28,0,0,1,19.19,88.83Z"/>
            <path class="cls-3" d="M106.05,24.05c1.53.34,2.78.08,3.56-1.15-.4.93-.75,1.88-1.22,2.79-.16.31-.64.5-.9.79a2.15,2.15,0,0,0-.5.83c-.14.51-.17,1.06-.31,1.57s-.72.94-1.25,1.33a32.84,32.84,0,0,0-2.86,2.41c-.23.22-.23.63-.27,1a2.17,2.17,0,0,1-1.55,1.84c-1.17.41-1.46,1-1.17,2a1,1,0,0,1,0,.25.38.38,0,0,1,0,.15A2.34,2.34,0,0,1,99,38a2.25,2.25,0,0,0-2.11,2,6.37,6.37,0,0,1-3,3.75c-.57.4-1,.77-.94,1.42a1.49,1.49,0,0,1-.8,1.32,3.28,3.28,0,0,0-.88.9c-.69,1-1.87,1.78-2.22,3a4.54,4.54,0,0,0-2.29,2.3c0,.07-.2.11-.31.14a6.25,6.25,0,0,0-3.19,2.49,1.66,1.66,0,0,0-.32.88,1.81,1.81,0,0,1-1,1.43,2.33,2.33,0,0,0-.73.94c-.2.4-.28.84-.45,1.25a2.22,2.22,0,0,1-1.52,1.34.79.79,0,0,0-.44.21c-.74,1.19-2.33,1.57-3.24,2.58a3.09,3.09,0,0,0-.7,1.34,5.76,5.76,0,0,1-2.67,3.46c-1,.69-2.21,1.34-2.27,2.69,0,.21-.42.5-.71.59a2,2,0,0,0-1.45,1.27,1.5,1.5,0,0,1-.91.78A2.42,2.42,0,0,0,65,76.18c0,.27-.12.54-.15.81s-.2.5-.7.46a2.42,2.42,0,0,0-2.52,1.6c-.26.78-.49,1.57-.8,2.33a1.38,1.38,0,0,1-.64.58c-.77.35-1.57.65-2.36,1a.6.6,0,0,0-.43.73v0c.37,1.32-.5,2-1.74,2.52a2,2,0,0,0-1.37,1.4c-.09.3-.44.56-.73.78a7.59,7.59,0,0,1-.77.35A3.08,3.08,0,0,0,51,90.86a3.15,3.15,0,0,1-1.76,2.41c-.42.22-.62.74-1,1.07a3.66,3.66,0,0,1-.92.63c-.27.14-.61.15-.89.27-.88.41-1.74.81-1.78,1.86,0,1.46-1.11,2.44-2.45,3.14-.82.42-1.49.82-1.57,1.7,0,.37-.35.43-.72.47a3.18,3.18,0,0,0-1.52.26c-.29.23-.14.84-.3,1.24a2.83,2.83,0,0,1-.65.85,1.89,1.89,0,0,1-.68.47A2.23,2.23,0,0,0,35,107.35c0,.15-.3.37-.51.42a2.19,2.19,0,0,0-1.72,1.43,2.29,2.29,0,0,1-2.47,1.57c-.72-.06-1,.18-1.05.84-.07,1.17-.76,1.51-2.51,1.41.15-.44.31-.89.48-1.33.06-.18.06-.43.21-.53,1.07-.67.92-1.58.73-2.52a1.94,1.94,0,0,1,1.08-1.82,2.76,2.76,0,0,0,1.5-1.27,3.11,3.11,0,0,1,1-1.07,2,2,0,0,0,.92-1.36.89.89,0,0,1,.82-.83c1.5-.26,1.74-1.45,2.37-2.36a3.24,3.24,0,0,1,.88-1,2.18,2.18,0,0,0,1-1.45,1.76,1.76,0,0,1,.64-1C39.7,95.57,41,94.68,40,93c2.27-.72,3.38-2.31,4.6-3.8.61-.73,1.23-1.46,1.83-2.19.12-.14.28-.29.29-.44.12-1.52,1.44-2.47,2.49-3.44a7.22,7.22,0,0,0,2.19-2.47c.3-.73,1.39-1.14,2.36-1.35.44-.09.62-.28.55-.66v-.44c-.16-.68.2-1.06.87-1.4a1.64,1.64,0,0,0,.79-.87,3.93,3.93,0,0,1,2.25-2.43,3.61,3.61,0,0,1,.44-.22c1.31-.43,2.13-1.08,1.67-2.42a.88.88,0,0,1,.43-.54,3,3,0,0,0,1.66-1.52.34.34,0,0,1,.19-.26c1.57-.53,2.08-2,3.31-2.83a15.49,15.49,0,0,0,2.35-2.3,1.43,1.43,0,0,0,.29-.77,1.57,1.57,0,0,1,1-1.26c.28-.13.52-.32.79-.46a2.83,2.83,0,0,0,1.45-1.89,12.09,12.09,0,0,1,1.57-3c.19-.3.77-.41,1.16-.62.2-.1.48-.21.55-.37a4.47,4.47,0,0,1,2.46-2,3.26,3.26,0,0,0,1.79-1.65,1.7,1.7,0,0,1,.85-.62c.6-.25,1-.59,1-1.18a1.22,1.22,0,0,1,1.11-1.2c.73-.15.82-.44.69-1V47a1.18,1.18,0,0,1,.71-1.37,2.31,2.31,0,0,0,.81-.86,2.64,2.64,0,0,1,1.43-1.26,1.85,1.85,0,0,0,.7-.44,8.26,8.26,0,0,1,3.3-2c.45-.18.69-.41.7-.85a3.69,3.69,0,0,1,1.92-3c.38-.25.51-.77.79-1.16a2.9,2.9,0,0,1,.72-.8c1.08-.68,2.2-1.3,3.31-2a2.51,2.51,0,0,0,.32-.25l4-3.83c2-1.92,0,0,0,0,1.61-.64,2.41-2,3.55-3a3.79,3.79,0,0,0,.66-1.39A5,5,0,0,0,106.05,24.05Z"/>
            <path class="cls-3" d="M3.07,89.63c.12-.94.19-1.79.35-2.63A1.24,1.24,0,0,1,4,86.31a1.66,1.66,0,0,0,.83-1.44,2.28,2.28,0,0,1,1.88-2.21,2.29,2.29,0,0,0,1.61-1.24.72.72,0,0,1,.27-.37,2.38,2.38,0,0,0,1.32-2.47.6.6,0,0,1,.31-.38A5.5,5.5,0,0,0,13,74.26a1.42,1.42,0,0,1,1.14-1.21,1.09,1.09,0,0,0,.95-1.16,1.05,1.05,0,0,1,.9-1.08,1.7,1.7,0,0,0,1.22-1.2A5.79,5.79,0,0,1,20,66.5a2.31,2.31,0,0,0,1.25-1.6,1.25,1.25,0,0,1,.65-.74,1.66,1.66,0,0,0,1.18-1.52c0-.48.36-.72.74-1a3.33,3.33,0,0,0,1-1.08,1.52,1.52,0,0,1,1.36-1c.76-.08,1.15-.39,1.06-1.11A1.56,1.56,0,0,1,28.05,57a3.87,3.87,0,0,0,.88-1.13,3.34,3.34,0,0,1,2.81-2.08c.43,0,.61-.23.52-.58-.27-1.11.36-1.78,1.49-2.1,1.46-.41,1.85-1.23,1.52-2.43v-.26q.31-.09.63-.15a1.85,1.85,0,0,0,1.78-1.33.41.41,0,0,1,.13-.23c1.06-.92,2.11-1.86,3.21-2.74.34-.28.6-.47.58-.92A4.33,4.33,0,0,1,43,39.79a5.66,5.66,0,0,0,.42-.43A3.05,3.05,0,0,1,46,38a2.19,2.19,0,0,0,1.8-1.49,2.63,2.63,0,0,1,1.76-1.6c.26-.08.46-.39.61-.63a19.63,19.63,0,0,0,1-1.78,4,4,0,0,0,.49-1.1A2.79,2.79,0,0,1,54,29.23c.64-.15,1-.42,1-1a1.29,1.29,0,0,1,1-1.29,6.74,6.74,0,0,0,2.46-2,10.68,10.68,0,0,1,1.63-1.52,8.49,8.49,0,0,0,2.68-3,14,14,0,0,1,2-2.48,2.57,2.57,0,0,1,1.45-.41,1.28,1.28,0,0,0,1.25-.84,2.35,2.35,0,0,1,.87-1,2,2,0,0,0,1.11-1.39,1.35,1.35,0,0,1,.85-1,5.59,5.59,0,0,0,3.16-2.88A1.85,1.85,0,0,1,75,9.12a1.3,1.3,0,0,0,1.2-1,1.3,1.3,0,0,1,1.1-1A1.22,1.22,0,0,0,78.39,6c.28-1.33,1.3-1.88,3-1.59-.89,1.11-.87,2.4-1.11,3.65a1.77,1.77,0,0,1-1.64,1.68c-.72.08-1.11.42-1.06,1.08a2.23,2.23,0,0,1-.82,1.61c-.44.5-.33.93-.56,1.38a1.59,1.59,0,0,1-.6.66,16.18,16.18,0,0,1-2,.88,1,1,0,0,0-.77,1.19.65.65,0,0,0,0,.13c.25.76-.12,1.08-.89,1.36a3.17,3.17,0,0,0-1.12.9c-.69.78-1.33,1.59-2,2.42a2.93,2.93,0,0,0-.54,1.07A5.3,5.3,0,0,1,65,26.19a1.39,1.39,0,0,0-.72.77,2.46,2.46,0,0,1-1.25,1.52,4.21,4.21,0,0,0-2.16,2.36c-.09.31-.63.6-1,.76s-.8.51-.68,1c.18.82-.17,1.33-1.09,1.62a2.54,2.54,0,0,0-.84.65c-.75.75-1.42,1.55-2.22,2.25-1,.87-1.74,1.79-1.55,3.09,0,.38-.11.6-.6.58h-.29c-1.42.13-1.38.14-1.68,1.36a1.34,1.34,0,0,1-.77.71A1.65,1.65,0,0,0,49,44.16a2.67,2.67,0,0,1-.79,1.14,7.71,7.71,0,0,1-1.36,1.05,1.13,1.13,0,0,0-.65,1,3.42,3.42,0,0,1-1,2.3,3.67,3.67,0,0,1-2.34,1.55,2.69,2.69,0,0,0-2.32,1.86c-.07.27-.24.51-.29.78a2,2,0,0,1-1.67,1.76,1.23,1.23,0,0,0-.62.63,2.49,2.49,0,0,1-1.07,1.3,1.53,1.53,0,0,0-1,1.28A1.34,1.34,0,0,1,35,60c-.36.14-.65.39-1,.53a2.22,2.22,0,0,0-1.57,1.72.92.92,0,0,1-.62.58,3.33,3.33,0,0,0-2.09,1.53,28.43,28.43,0,0,1-2.1,2.55,3.9,3.9,0,0,0-1.22,2,.94.94,0,0,1-.78.82A1.35,1.35,0,0,0,24.43,71c0,.65-.45.88-1.16.93-1.16.09-1.17.11-1.27,1.15a.79.79,0,0,1-.72.88c-.88.16-1.32.61-1.29,1.39,0,.5-.22.76-.83.82-1.92.19-2.74,1.49-3.47,2.76a2.5,2.5,0,0,1-1.89,1.44.77.77,0,0,0-.57.57c.1,1.15-.67,1.77-1.74,2.19a2.72,2.72,0,0,0-1.81,1.94,2.83,2.83,0,0,1-1,1.45,39.47,39.47,0,0,1-3.81,2.61A5.89,5.89,0,0,1,3.07,89.63Z"/>
            <path class="cls-3" d="M108.86,47c-.59,1-1.1,1.74-1.58,2.55a2.78,2.78,0,0,0-.31.92,4.31,4.31,0,0,0,0,.88c0,1.21-.36,1.71-1.7,2-.72.16-.91.43-.81,1,.2,1.27-.25,2-1.64,2.41-.8.27-1.22.61-1,1.37s-.13,1-.78,1.38a7.19,7.19,0,0,0-1.64,1.14,2.16,2.16,0,0,0-.52,1.06,1.32,1.32,0,0,1-.76.93c-.45.21-.84.51-1.28.74A2.56,2.56,0,0,0,95.4,65.1a1,1,0,0,1-.4.57,5.4,5.4,0,0,0-2.28,3.52c-.47,1.84,0,1.38-2.13,1.72a1.94,1.94,0,0,0-1.38,1.5.61.61,0,0,0,0,.19c.25,1.1-.14,1.8-1.55,1.93-.17,0-.36.25-.46.42a4,4,0,0,0-.38.88,2.38,2.38,0,0,1-2.33,2c-.16,0-.32.24-.43.4a.51.51,0,0,0-.07.36c.13.81-.27,1.25-1.19,1.41s-1.31.91-1.72,1.52a11.17,11.17,0,0,1-2.73,3.08,1.22,1.22,0,0,0-.38.84A1.72,1.72,0,0,1,77,87c-1.09.54-2.14,1.14-3.18,1.76a.75.75,0,0,0-.31.6c0,.52.27,1.14,0,1.52s-1,.46-1.52.68l-.26.1c-1,.33-1.54.84-1.3,1.81.15.55-.13.85-.8.94a3.84,3.84,0,0,0-1.24.36c-.74.4-1.44.86-1.17,1.79.2.69-.17,1.14-.91,1.44a6.53,6.53,0,0,0-1,.64,12.84,12.84,0,0,1-1.72,1c-.53.22-.83.48-.84,1,0,.69-.33,1.15-1.23,1.14a1.07,1.07,0,0,0-1.23.86s0,.09,0,.14a.94.94,0,0,1-1,.89h0a3,3,0,0,0-1.87.89,4.31,4.31,0,0,1-.92.72,2.39,2.39,0,0,0-1.11,1.42,3.68,3.68,0,0,1-.32.7,2.1,2.1,0,0,1-2.15,1.37,5.8,5.8,0,0,0-1.53.37,2,2,0,0,1,1-2.58c.76-.39,1-.82.71-1.53s-.1-1.09.68-1.31,1-.8,1.25-1.37a1.65,1.65,0,0,1,.39-.58,9.88,9.88,0,0,0,3-4.37,1.16,1.16,0,0,1,.63-.6,3.15,3.15,0,0,0,2.32-2.58,7.27,7.27,0,0,1,.22-.8A1.82,1.82,0,0,1,63.45,92a1.22,1.22,0,0,0,1.2-.86c.07-.22.27-.41.32-.63a2.72,2.72,0,0,1,1.94-2.19,2.27,2.27,0,0,0,1-1.56,1.79,1.79,0,0,1,1.77-1.64,1.71,1.71,0,0,0,.9-.54c1-1.11,1.77-2.32,1.27-3.83A6.7,6.7,0,0,1,73,80.49a2.33,2.33,0,0,0,1.88-1.14,1.11,1.11,0,0,0,.12-.89c-.28-1.06.47-1.58,1.34-2.07a.82.82,0,0,1,.26-.1,1.76,1.76,0,0,0,1.7-1.82v0A2.73,2.73,0,0,1,79.15,73c.2-.22.74-.22,1.14-.27,1.07-.14,1.12-.13,1.12-1a1.35,1.35,0,0,1,.93-1.33,3.21,3.21,0,0,0,1-.87c.42-.48.74-1,1.19-1.49a14.58,14.58,0,0,0,2.2-2.57A3.54,3.54,0,0,1,88.53,64a6.26,6.26,0,0,0,2.67-2.1,6,6,0,0,0,1.89-3c0-.2.36-.44.6-.5a3.24,3.24,0,0,0,2-1.32,2,2,0,0,1,.81-.59A5,5,0,0,0,99,54.18a1.48,1.48,0,0,1,1.21-.78,1,1,0,0,0,1-1,.4.4,0,0,0,0-.11c.06-1.22-.13-.93,1.25-1.27a14.52,14.52,0,0,0,2-.73,1.15,1.15,0,0,0,.4-.42c.18-.3.33-.61.51-.91C106.29,47.28,106.32,47.27,108.86,47Z"/>
            <path class="cls-3" d="M55.36,9.82c-.53.85-1.83.24-2.25,1a2.46,2.46,0,0,0-.4.77,5.21,5.21,0,0,0,0,.79c0,1.09-.32,1.54-1.52,1.8-.64.14-.82.38-.73.94.18,1.14-.22,1.75-1.47,2.17-.72.24-1.1.54-.9,1.23s-.12.93-.7,1.23a6.76,6.76,0,0,0-1.48,1,2.11,2.11,0,0,0-.46.95,1.17,1.17,0,0,1-.68.83c-.41.2-.75.47-1.15.67a2.32,2.32,0,0,0-1.29,1.54,1,1,0,0,1-.36.52,4.91,4.91,0,0,0-2.06,3.16c-.42,1.65,0,1.24-1.9,1.54a1.78,1.78,0,0,0-1.25,1.36.43.43,0,0,0,0,.16c.22,1-.13,1.62-1.39,1.74-.16,0-.33.22-.42.37a3.69,3.69,0,0,0-.34.79,2.14,2.14,0,0,1-2.09,1.76c-.15,0-.29.22-.39.36a.49.49,0,0,0-.07.33c.13.72-.23,1.12-1.06,1.26s-1.18.82-1.55,1.37A10.29,10.29,0,0,1,27,42.23a1.14,1.14,0,0,0-.34.75,1.56,1.56,0,0,1-.94,1.37,31.44,31.44,0,0,0-2.85,1.58.73.73,0,0,0-.28.55c0,.46.24,1,0,1.36s-.89.41-1.37.6l-.23.1c-.86.29-1.39.75-1.16,1.62.13.5-.12.76-.72.85a3.3,3.3,0,0,0-1.11.32c-.67.36-1.3.77-1.06,1.61.18.62-.15,1-.82,1.29a6.37,6.37,0,0,0-.88.58,11.37,11.37,0,0,1-1.55.9c-.47.19-.75.42-.76.87a.94.94,0,0,1-.86,1,1,1,0,0,1-.24,0,1,1,0,0,0-1.11.88v0c-.05.46-.32.74-.9.79a2.56,2.56,0,0,0-1.67.81,4.28,4.28,0,0,1-.83.64,2.14,2.14,0,0,0-1,1.28,3.64,3.64,0,0,1-.3.63A1.88,1.88,0,0,1,4.1,63.89a5.43,5.43,0,0,0-1.38.32,1.77,1.77,0,0,1,.93-2.31c.68-.35.92-.74.64-1.37s-.1-1,.6-1.18.89-.72,1.13-1.23a1.31,1.31,0,0,1,.34-.52,8.77,8.77,0,0,0,2.75-3.9,1,1,0,0,1,.57-.53,2.87,2.87,0,0,0,2.08-2.33c.05-.24.13-.47.2-.71a1.65,1.65,0,0,1,1.66-1.33A1.1,1.1,0,0,0,14.7,48a3.77,3.77,0,0,0,.28-.57,2.46,2.46,0,0,1,1.74-2,2,2,0,0,0,1-1.4,1.61,1.61,0,0,1,1.59-1.47,1.46,1.46,0,0,0,.81-.49c.92-1,1.59-2.08,1.14-3.44a6.9,6.9,0,0,1,1-.23,2.1,2.1,0,0,0,1.69-1,1,1,0,0,0,.11-.81c-.25-.94.42-1.42,1.2-1.85a.5.5,0,0,1,.24-.09,1.59,1.59,0,0,0,1.5-1.6,2.46,2.46,0,0,1,.75-1.35c.18-.19.67-.19,1-.24,1-.12,1-.11,1-.93a1.19,1.19,0,0,1,.83-1.19,3,3,0,0,0,.88-.79c.37-.43.66-.93,1.06-1.34a13.26,13.26,0,0,0,2-2.3,3.13,3.13,0,0,1,1.6-1.24,5.66,5.66,0,0,0,2.39-1.85,5.41,5.41,0,0,0,1.7-2.69c0-.17.32-.39.55-.45A2.87,2.87,0,0,0,42.5,17.5a1.93,1.93,0,0,1,.73-.54,4.49,4.49,0,0,0,2.23-2.07,1.33,1.33,0,0,1,1.09-.7.91.91,0,0,0,.89-.91s0-.06,0-.09c0-1.09-.12-.83,1.13-1.14a11.4,11.4,0,0,0,1.8-.66.81.81,0,0,0,.36-.37c.17-.27.3-.55.46-.82C52.1,8.69,53.08,10.05,55.36,9.82Z"/>
          </g>
          <g>
            <path class="cls-3" d="M23.7,87.63l2.1-.27a7.49,7.49,0,0,0-.14-1.28.62.62,0,0,1,.42-.76A1.75,1.75,0,0,0,27.2,84a2.36,2.36,0,0,1,1.74-1.71A1.82,1.82,0,0,0,30.34,81a2.56,2.56,0,0,1,1.85-1.7c.94-.27,1-.31.78-1.14a1.63,1.63,0,0,1,.61-1.83,2,2,0,0,1,.48-.29,14.11,14.11,0,0,0,2.43-1c.45-.33.57-1,.84-1.51a.28.28,0,0,0,0-.18c-.18-1,.32-1.41,1.35-1.78a3.49,3.49,0,0,0,1.76-1.43,16,16,0,0,1,4.08-4.48A1.73,1.73,0,0,0,45,64.5a1.12,1.12,0,0,1,.66-.94l1.86-.94c.9-.46,1.6-1,1.65-2a2.3,2.3,0,0,1,1.68-2.17c1-.37,1.66-1,1.56-2a1.17,1.17,0,0,1,.81-1.26,4.63,4.63,0,0,0,1.17-.79,2.32,2.32,0,0,0,.72-1c.3-1.18,1.47-1.82,2.22-2.71.19-.23.79-.22,1.21-.29a2,2,0,0,0,1.57-1.31.45.45,0,0,0,0-.23c-.2-1,.09-1.64,1.33-1.85.17,0,.36-.25.41-.41a2.09,2.09,0,0,1,1.57-1.36,1.25,1.25,0,0,0,.64-.58c.57-1,1-2.1,1.68-3.1.19-.29.79-.38,1.17-.6a2.78,2.78,0,0,0,.72-.6,4.42,4.42,0,0,0,.34-.69,2,2,0,0,1,1.72-1.27,1.4,1.4,0,0,0,1.47-1.12c.1-.52.63-.69,1.09-.86a.69.69,0,0,0,.57-.78s0,0,0-.07c-.17-1.15-.16-1.15,1.14-1.58a1.53,1.53,0,0,0,.41-.19c.67-.55,1.36-1.07,2-1.67a1.12,1.12,0,0,0,.16-.87c-.07-.64.18-1,.93-1.16a1.19,1.19,0,0,0,1-.86,2.85,2.85,0,0,1,2.32-2,.91.91,0,0,0,.8-.69,17.12,17.12,0,0,1,.59-1.84c.07-.19.33-.32.52-.48h.13c1.31-.23,1.28-.24,1.56-1.35a2.34,2.34,0,0,1,1.52-1.51,23.82,23.82,0,0,0,2.28-1.09,2,2,0,0,0,1.3-2.11c-.06-.4.15-.66.58-.81.27-.1.49-.29.75-.39a3.29,3.29,0,0,0,2.15-1.77c.16-.39.75-.64,1.1-1A17.61,17.61,0,0,0,97.38,10c.24-.47,1-.75,1.57-1.09a1.49,1.49,0,0,1,.66-.12A1.48,1.48,0,0,0,100.92,8a3,3,0,0,1,.88-1c.64-.49,1.33-.93,2.14-1.48-.16.86.15,1.65-.57,2.31-.27.24-.46.54-.74.75a4.17,4.17,0,0,0-1.18,1.82c-.57,1.18-1,2.52-2.59,3.15a5.39,5.39,0,0,0-3.1,2.64,4.85,4.85,0,0,0-.38,1.45,1.09,1.09,0,0,1-.61.83c-.88.55-1.72,1.16-2.56,1.76a1.42,1.42,0,0,0-.64,1.28,1.24,1.24,0,0,1-.81,1.23,1,1,0,0,0-.63,1A1.53,1.53,0,0,1,89.25,25c-.43.25-.64.75-1,1.12a4.37,4.37,0,0,1-.68.68c-.21.17-.5.26-.73.41a2.69,2.69,0,0,0-1.51,1.88c-.23,2.08-1.64,3.4-3.82,4.19a1.79,1.79,0,0,0-.7.58,17.72,17.72,0,0,0-2.13,3.86,3.63,3.63,0,0,1-.78.92c-.18.17-.46.27-.6.46a4.28,4.28,0,0,1-2.17,1.46c-.67.19-.53.76-.57,1.18a1,1,0,0,1-.56.85,6.49,6.49,0,0,1-1,.55,2.1,2.1,0,0,0-1.59,1.92,5.43,5.43,0,0,1-.59,1.71,3.16,3.16,0,0,1-1.67,1.29,1.3,1.3,0,0,0-.72.68A1.9,1.9,0,0,1,67.15,50a.72.72,0,0,0-.61.73c0,1.19-.87,1.83-2.14,2-.81.14-1.13.47-1.23,1.17a3.13,3.13,0,0,1-1.55,2.34,2.3,2.3,0,0,0-.74.81,4.93,4.93,0,0,1-2.45,2.14A2.58,2.58,0,0,0,56.83,61a1.37,1.37,0,0,1-1,1c-1.28.41-1.75,1-1.66,2.21a1,1,0,0,1-.89,1.18,2.63,2.63,0,0,0-2.05,2c0,.38-.29.57-.67.71A5.52,5.52,0,0,0,48,70.36a25.58,25.58,0,0,1-2.9,2.8,2.53,2.53,0,0,0-.55.86,5.35,5.35,0,0,0-.14.8,2.11,2.11,0,0,1-1.68,1.87,3.46,3.46,0,0,0-2.5,1.63,2.74,2.74,0,0,0-.33,1c0,1-.75,1.38-1.58,1.76-.43.19-1.08.23-1.3.52s-.09.82,0,1.24-.1.52-.49.56a2.32,2.32,0,0,0-2.26,2.16,1.08,1.08,0,0,1-.94,1,1.23,1.23,0,0,0-1,1,3.07,3.07,0,0,1-.33.82,2.28,2.28,0,0,1-1.76,1.28.79.79,0,0,0-.77.63,3,3,0,0,1-1.92,2.06,1.68,1.68,0,0,0-1.07,1.46,1.36,1.36,0,0,1-.46.85c-.94.64-2,1.2-2.93,1.83a1.87,1.87,0,0,0-.6.68c-.21.4-.29.85-.52,1.23a2.39,2.39,0,0,1-1.85,1c-.44,0-.64.23-.68.64-.09,1-.11,1-1.29,1.24-.54.09-.77.27-.74.76a1.52,1.52,0,0,1-1.05,1.64c-.32.13-.52.54-.68.87a1,1,0,0,1-1,.63A1.41,1.41,0,0,0,13,106.25s0,0,0,.08c-.08.27-.41.51-.66.74s-.85.53-1,.88a3,3,0,0,1-2.25,1.68,2.76,2.76,0,0,0-1.78,1.19,4.65,4.65,0,0,1-1.11.86l-.2-.14c.29-.5.6-1,.86-1.51a5.6,5.6,0,0,0,.47-1.1c.1-.33.07-.7.18-1a1.69,1.69,0,0,1,1.74-1.26c.69,0,1-.3.92-.91a1,1,0,0,1,.73-1.11c1.07-.37,1.19-1.29,1.5-2.07a9.6,9.6,0,0,1,.71-1.87,4.66,4.66,0,0,1,1.5-1.29,4.16,4.16,0,0,0,1.5-1.64A7.07,7.07,0,0,1,17.69,96c.41-.34.71-.63.6-1.13a1.59,1.59,0,0,1,.7-1.65c.73-.6,1.44-1.23,2.14-1.86a2,2,0,0,0,.59-.68,1.51,1.51,0,0,1,1.45-1c.72,0,.93-.37.73-1A7.76,7.76,0,0,1,23.7,87.63Z"/>
            <path class="cls-3" d="M105,28.21c1.42.31,2.58.08,3.29-1.06-.36.86-.69,1.74-1.12,2.57-.15.3-.59.47-.84.73a2.06,2.06,0,0,0-.45.77c-.14.48-.16,1-.3,1.46a2.94,2.94,0,0,1-1.15,1.22,28,28,0,0,0-2.64,2.23,1.4,1.4,0,0,0-.25.89,2,2,0,0,1-1.43,1.7c-1.09.38-1.35,1-1.09,1.83a.89.89,0,0,1,0,.23v.15a2.45,2.45,0,0,1-.54.18,2.09,2.09,0,0,0-2,1.81,5.9,5.9,0,0,1-2.74,3.47c-.52.37-.89.71-.86,1.31a1.36,1.36,0,0,1-.74,1.22,3.08,3.08,0,0,0-.82.83c-.63,1-1.73,1.65-2,2.77a4.1,4.1,0,0,0-2.11,2.13c0,.06-.19.1-.29.13A5.76,5.76,0,0,0,84,57.08a1.5,1.5,0,0,0-.31.81,1.66,1.66,0,0,1-.93,1.32,2.29,2.29,0,0,0-.67.87c-.19.37-.26.78-.42,1.16a2,2,0,0,1-1.4,1.23.72.72,0,0,0-.41.2c-.68,1.1-2.15,1.46-3,2.38a3.06,3.06,0,0,0-.64,1.24,5.33,5.33,0,0,1-2.47,3.2c-1,.63-2,1.24-2.09,2.49,0,.19-.39.46-.66.54a1.82,1.82,0,0,0-1.34,1.18,1.49,1.49,0,0,1-.84.72,2.2,2.2,0,0,0-1.68,2,6,6,0,0,0-.14.74c0,.37-.19.47-.65.43A2.24,2.24,0,0,0,64,79c-.24.72-.45,1.45-.74,2.15a1.17,1.17,0,0,1-.59.53c-.71.33-1.45.61-2.18.9a.55.55,0,0,0-.4.68v0c.35,1.22-.46,1.88-1.6,2.32A1.88,1.88,0,0,0,57.22,87c-.07.27-.4.51-.67.72s-.47.23-.71.33a2.81,2.81,0,0,0-1.72,2,2.91,2.91,0,0,1-1.62,2.23c-.39.2-.57.68-.9,1a3.55,3.55,0,0,1-.85.58c-.25.13-.57.14-.82.25-.82.38-1.61.75-1.65,1.72A3.57,3.57,0,0,1,46,98.62c-.75.39-1.37.76-1.45,1.57,0,.35-.32.4-.66.43s-1.11,0-1.4.24-.14.78-.28,1.16a2.7,2.7,0,0,1-.61.78,1.58,1.58,0,0,1-.62.43,2.07,2.07,0,0,0-1.64,2c0,.14-.28.34-.47.39a2,2,0,0,0-1.58,1.32A2.14,2.14,0,0,1,35,108.35c-.66,0-.94.17-1,.78-.07,1.08-.71,1.39-2.32,1.3l.44-1.23c.06-.16.06-.4.19-.48,1-.63.86-1.47.68-2.34a1.82,1.82,0,0,1,1-1.68,2.58,2.58,0,0,0,1.39-1.17,2.82,2.82,0,0,1,.88-1,1.86,1.86,0,0,0,.85-1.26.81.81,0,0,1,.75-.77c1.39-.24,1.61-1.34,2.19-2.17a3.14,3.14,0,0,1,.81-.89,2,2,0,0,0,.93-1.35,1.55,1.55,0,0,1,.59-.91c1.23-.84,2.39-1.66,1.48-3.2,2.09-.67,3.12-2.14,4.25-3.52.56-.67,1.14-1.34,1.7-2,.1-.13.25-.26.26-.4.11-1.41,1.33-2.29,2.3-3.18a6.68,6.68,0,0,0,2-2.29c.27-.67,1.28-1,2.18-1.24.4-.09.57-.27.5-.62v-.4c-.16-.63.18-1,.8-1.29a1.56,1.56,0,0,0,.73-.81A3.64,3.64,0,0,1,60.72,74c.13-.07.26-.14.4-.2,1.22-.39,2-1,1.55-2.24a.84.84,0,0,1,.4-.5,2.77,2.77,0,0,0,1.53-1.4.32.32,0,0,1,.17-.24c1.46-.49,1.93-1.83,3.06-2.62A14.23,14.23,0,0,0,70,64.65a1.32,1.32,0,0,0,.27-.71,1.44,1.44,0,0,1,1-1.17c.26-.11.47-.3.72-.43a2.59,2.59,0,0,0,1.35-1.74,11,11,0,0,1,1.45-2.73c.18-.27.71-.37,1.07-.57.18-.09.44-.19.5-.34a4.19,4.19,0,0,1,2.28-1.88,3.07,3.07,0,0,0,1.66-1.53c.1-.24.48-.44.78-.57.55-.23.92-.55.92-1.09a1.11,1.11,0,0,1,1-1.11c.65-.11.76-.41.64-.89v-.4a1.1,1.1,0,0,1,.65-1.28,2.11,2.11,0,0,0,.76-.78,2.44,2.44,0,0,1,1.32-1.17,1.56,1.56,0,0,0,.64-.41,7.68,7.68,0,0,1,3.11-2c.41-.16.64-.38.65-.78a3.4,3.4,0,0,1,1.77-2.78c.35-.24.47-.72.73-1.07a2.53,2.53,0,0,1,.67-.75c1-.62,2-1.2,3-1.79a1.76,1.76,0,0,0,.3-.24q1.85-1.75,3.67-3.53v0c1.49-.58,2.24-1.82,3.28-2.79a3.59,3.59,0,0,0,.62-1.29A3.47,3.47,0,0,0,105,28.21Z"/>
            <path class="cls-3" d="M6.72,88.82c.1-.87.17-1.66.32-2.43a1.12,1.12,0,0,1,.49-.64,1.58,1.58,0,0,0,.77-1.33,2.11,2.11,0,0,1,1.74-2,2.1,2.1,0,0,0,1.48-1.14.73.73,0,0,1,.25-.35A2.21,2.21,0,0,0,13,78.6a.56.56,0,0,1,.29-.35,5.07,5.07,0,0,0,2.61-3.64,1.29,1.29,0,0,1,1-1.12,1,1,0,0,0,.88-1.07,1,1,0,0,1,.82-1,1.58,1.58,0,0,0,1.14-1.11,5.34,5.34,0,0,1,2.6-2.87A2.15,2.15,0,0,0,23.54,66a1.09,1.09,0,0,1,.6-.68,1.57,1.57,0,0,0,1.09-1.41c0-.44.33-.67.68-.93a3,3,0,0,0,.94-1,1.39,1.39,0,0,1,1.26-1c.7-.07,1.07-.36,1-1a1.47,1.47,0,0,1,.71-1.36,3.4,3.4,0,0,0,.81-1,3.12,3.12,0,0,1,2.6-1.93c.4,0,.57-.2.48-.53-.25-1,.34-1.64,1.38-1.94,1.35-.38,1.71-1.14,1.4-2.25v-.24a3.87,3.87,0,0,1,.59-.13,1.73,1.73,0,0,0,1.64-1.24.37.37,0,0,1,.12-.2c1-.86,1.94-1.72,3-2.54.31-.25.55-.43.53-.84a4,4,0,0,1,1.31-3,5,5,0,0,0,.39-.41,2.85,2.85,0,0,1,2.34-1.23,2,2,0,0,0,1.66-1.37,2.48,2.48,0,0,1,1.63-1.48c.24-.07.43-.35.56-.57.34-.54.65-1.1,1-1.66a3.75,3.75,0,0,0,.45-1,2.59,2.59,0,0,1,2.12-2c.58-.14.93-.39.93-1a1.21,1.21,0,0,1,1-1.17A6.32,6.32,0,0,0,57.94,29a9.47,9.47,0,0,1,1.5-1.4,7.68,7.68,0,0,0,2.47-2.78,13.74,13.74,0,0,1,1.81-2.28,2.36,2.36,0,0,1,1.34-.39,1.19,1.19,0,0,0,1.16-.77,2,2,0,0,1,.8-.94,1.9,1.9,0,0,0,1-1.29,1.23,1.23,0,0,1,.78-.94,5.16,5.16,0,0,0,2.92-2.66,1.74,1.74,0,0,1,1.46-1.15,1.19,1.19,0,0,0,1.12-.94,1.19,1.19,0,0,1,1-.88,1.13,1.13,0,0,0,1-1c.26-1.22,1.21-1.73,2.75-1.47-.82,1-.81,2.22-1,3.38A1.63,1.63,0,0,1,76.53,15c-.67.08-1,.39-1,1a2.34,2.34,0,0,1-.76,1.49c-.4.49-.31.86-.51,1.27a1.46,1.46,0,0,1-.56.62,16,16,0,0,1-1.85.81.9.9,0,0,0-.72,1,.84.84,0,0,0,.05.17c.22.7-.11,1-.83,1.26a2.83,2.83,0,0,0-1,.82c-.63.72-1.23,1.48-1.8,2.24a2.94,2.94,0,0,0-.5,1,4.88,4.88,0,0,1-3,3.48,1.31,1.31,0,0,0-.66.71,2.27,2.27,0,0,1-1.16,1.41,3.86,3.86,0,0,0-2,2.18c-.08.29-.58.55-1,.71s-.74.47-.63.94c.17.75-.16,1.22-1,1.5a2,2,0,0,0-.77.6c-.69.69-1.31,1.43-2,2.07-.93.81-1.62,1.66-1.44,2.86,0,.35-.1.56-.55.54h-.27c-1.31.13-1.28.13-1.55,1.26a1.2,1.2,0,0,1-.71.65,1.54,1.54,0,0,0-1.07,1.15,2.52,2.52,0,0,1-.74,1.05,7.59,7.59,0,0,1-1.26,1,1,1,0,0,0-.59,1A3.21,3.21,0,0,1,45.68,52a3.38,3.38,0,0,1-2.16,1.42,2.52,2.52,0,0,0-2.15,1.73c-.06.24-.22.47-.26.71a1.88,1.88,0,0,1-1.55,1.63A1.17,1.17,0,0,0,39,58c-.26.45-.41.94-1,1.19a1.41,1.41,0,0,0-.92,1.19,1.24,1.24,0,0,1-.86,1.08c-.32.13-.59.36-.92.49a2.08,2.08,0,0,0-1.45,1.59.89.89,0,0,1-.58.54,3.08,3.08,0,0,0-1.93,1.41,21.92,21.92,0,0,1-1.94,2.36,3.69,3.69,0,0,0-1.13,1.88.85.85,0,0,1-.71.75,1.26,1.26,0,0,0-1.1,1.21c0,.6-.42.81-1.08.86-1.06.08-1.07.11-1.17,1.06a.73.73,0,0,1-.67.82c-.81.14-1.21.56-1.18,1.28,0,.46-.21.7-.77.76-1.78.17-2.54,1.38-3.21,2.55a2.33,2.33,0,0,1-1.75,1.33c-.21,0-.54.35-.52.52.09,1.07-.62,1.65-1.61,2a2.54,2.54,0,0,0-1.68,1.8A2.6,2.6,0,0,1,11.9,86a38.5,38.5,0,0,1-3.52,2.42A5.92,5.92,0,0,1,6.72,88.82Z"/>
            <path class="cls-3" d="M108.13,50.77c-.54.87-1,1.61-1.45,2.36a2.32,2.32,0,0,0-.29.85,5.48,5.48,0,0,0,0,.81c0,1.12-.33,1.58-1.57,1.85-.66.15-.84.39-.75,1,.19,1.17-.22,1.8-1.51,2.23-.74.25-1.13.56-.93,1.27s-.12,1-.72,1.27a6.6,6.6,0,0,0-1.51,1,2,2,0,0,0-.48,1,1.22,1.22,0,0,1-.71.85c-.41.2-.77.47-1.17.68a2.41,2.41,0,0,0-1.33,1.59,1,1,0,0,1-.37.53,5,5,0,0,0-2.12,3.26c-.43,1.69,0,1.27-2,1.58A1.83,1.83,0,0,0,90,74.3a.54.54,0,0,0,0,.18c.22,1-.14,1.66-1.44,1.78-.16,0-.33.23-.42.39a4.17,4.17,0,0,0-.36.81,2.19,2.19,0,0,1-2.15,1.81c-.15,0-.3.23-.4.37a.45.45,0,0,0-.06.34c.12.74-.25,1.15-1.1,1.3s-1.21.84-1.59,1.41A10.26,10.26,0,0,1,80,85.53a1.08,1.08,0,0,0-.34.78,1.59,1.59,0,0,1-1,1.41c-1,.5-2,1.06-2.94,1.63a.7.7,0,0,0-.28.55c0,.48.24,1.06,0,1.41s-.92.42-1.41.62l-.24.1c-.88.3-1.43.77-1.2,1.67.14.5-.12.78-.74.87a3.25,3.25,0,0,0-1.14.33c-.69.37-1.33.79-1.09,1.66.19.63-.15,1-.84,1.32a7.94,7.94,0,0,0-.91.6,11,11,0,0,1-1.6.92c-.48.2-.76.44-.77.9a1,1,0,0,1-.93,1.07h-.21a1,1,0,0,0-1.13.85.76.76,0,0,0,0,.15.87.87,0,0,1-.92.82h0a2.63,2.63,0,0,0-1.72.83,5,5,0,0,1-.85.66,2.25,2.25,0,0,0-1,1.32,3.73,3.73,0,0,1-.3.64,1.91,1.91,0,0,1-2,1.27,5.35,5.35,0,0,0-1.42.34,1.84,1.84,0,0,1,1-2.39c.7-.35.94-.76.65-1.41s-.09-1,.63-1.21.92-.74,1.16-1.26a1.3,1.3,0,0,1,.35-.54,9,9,0,0,0,2.79-4,1,1,0,0,1,.58-.55,3,3,0,0,0,2.15-2.39,6.21,6.21,0,0,1,.2-.74,1.68,1.68,0,0,1,1.71-1.36,1.11,1.11,0,0,0,1.1-.79c.07-.2.26-.38.3-.58a2.53,2.53,0,0,1,1.79-2,2.07,2.07,0,0,0,1-1.44A1.63,1.63,0,0,1,72,86a1.6,1.6,0,0,0,.83-.51A3.35,3.35,0,0,0,74,82a6.58,6.58,0,0,1,1.07-.23,2.19,2.19,0,0,0,1.74-1.06,1,1,0,0,0,.11-.82c-.26-1,.43-1.46,1.23-1.91a.77.77,0,0,1,.25-.1A1.61,1.61,0,0,0,80,76.17v0a2.52,2.52,0,0,1,.78-1.39c.18-.19.69-.2,1.06-.25,1-.12,1-.11,1-1a1.24,1.24,0,0,1,.86-1.23,2.9,2.9,0,0,0,.9-.81c.39-.44.68-.95,1.1-1.38a13.29,13.29,0,0,0,2-2.37,3.16,3.16,0,0,1,1.65-1.27,6,6,0,0,0,2.46-1.9,5.54,5.54,0,0,0,1.75-2.77c0-.18.33-.41.56-.47a3,3,0,0,0,1.8-1.21,1.92,1.92,0,0,1,.74-.55A4.61,4.61,0,0,0,99,57.41a1.36,1.36,0,0,1,1.12-.73.9.9,0,0,0,.9-.92v-.08c.06-1.13-.11-.86,1.17-1.18a13.62,13.62,0,0,0,1.85-.67,1,1,0,0,0,.37-.39c.17-.27.31-.56.47-.84C105.76,51,105.78,51,108.13,50.77Z"/>
            <path class="cls-3" d="M57.91,8.62c-.54.88-1,1.61-1.45,2.37a2.54,2.54,0,0,0-.29.84,3.66,3.66,0,0,0,0,.81c0,1.12-.33,1.59-1.57,1.86-.66.14-.84.39-.75,1,.19,1.18-.22,1.8-1.51,2.23-.74.25-1.13.56-.93,1.27s-.12,1-.71,1.27a6.69,6.69,0,0,0-1.52,1.06,2,2,0,0,0-.48,1,1.2,1.2,0,0,1-.71.85c-.41.2-.77.48-1.17.68a2.4,2.4,0,0,0-1.33,1.6.93.93,0,0,1-.37.52A5,5,0,0,0,43,29.18c-.43,1.69,0,1.27-2,1.59a1.81,1.81,0,0,0-1.28,1.39.49.49,0,0,0,0,.17c.22,1-.14,1.66-1.44,1.79-.15,0-.33.23-.42.38a4.17,4.17,0,0,0-.36.81,2.18,2.18,0,0,1-2.15,1.81c-.14,0-.3.23-.4.37a.5.5,0,0,0-.06.34c.12.74-.25,1.15-1.1,1.3s-1.21.85-1.59,1.41a10.26,10.26,0,0,1-2.53,2.84,1.16,1.16,0,0,0-.34.78,1.59,1.59,0,0,1-1,1.41c-1,.5-2,1.06-2.94,1.63a.72.72,0,0,0-.28.56c0,.48.25,1.05,0,1.4s-.92.43-1.41.62l-.24.1c-.88.3-1.42.77-1.19,1.67.13.51-.13.79-.75.87a3.25,3.25,0,0,0-1.14.33c-.69.38-1.33.8-1.08,1.66.18.63-.16,1.05-.85,1.33a6.74,6.74,0,0,0-.91.59,12.69,12.69,0,0,1-1.59.93c-.49.2-.77.44-.78.9,0,.63-.31,1.06-1.14,1.05a1,1,0,0,0-1.13.85.76.76,0,0,0,0,.15c-.05.48-.33.76-.92.82a2.69,2.69,0,0,0-1.72.82,3.88,3.88,0,0,1-.85.66,2.25,2.25,0,0,0-1,1.32,3.83,3.83,0,0,1-.3.65,1.94,1.94,0,0,1-2,1.27A5,5,0,0,0,4.77,66a1.83,1.83,0,0,1,1-2.38h0c.7-.36,1-.76.65-1.41S6.29,61.24,7,61a1.94,1.94,0,0,0,1.16-1.27,1.62,1.62,0,0,1,.35-.54,9,9,0,0,0,2.79-4,1.08,1.08,0,0,1,.58-.55A3,3,0,0,0,14,52.25a6.05,6.05,0,0,1,.2-.73A1.69,1.69,0,0,1,16,50.15a1.12,1.12,0,0,0,1.11-.79c.07-.2.25-.38.29-.58a2.55,2.55,0,0,1,1.79-2,2.07,2.07,0,0,0,1-1.44,1.65,1.65,0,0,1,1.63-1.51,1.56,1.56,0,0,0,.83-.5,3.35,3.35,0,0,0,1.18-3.54,6.61,6.61,0,0,1,1.07-.24,2.16,2.16,0,0,0,1.74-1,1,1,0,0,0,.11-.83c-.26-1,.43-1.46,1.23-1.91a.75.75,0,0,1,.25-.09A1.63,1.63,0,0,0,29.79,34h0a2.49,2.49,0,0,1,.78-1.38c.19-.2.69-.21,1.06-.25,1-.13,1-.12,1-1a1.24,1.24,0,0,1,.86-1.23,3,3,0,0,0,.9-.8,15.48,15.48,0,0,1,1.1-1.38,13,13,0,0,0,2-2.38,3.3,3.3,0,0,1,1.65-1.27,5.83,5.83,0,0,0,2.46-1.9,5.54,5.54,0,0,0,1.75-2.77c0-.18.33-.4.56-.46a3,3,0,0,0,1.8-1.22,2,2,0,0,1,.75-.55,4.57,4.57,0,0,0,2.29-2.13,1.36,1.36,0,0,1,1.12-.72.93.93,0,0,0,.91-.95v-.05c0-1.12-.12-.86,1.16-1.17a13.67,13.67,0,0,0,1.85-.68.87.87,0,0,0,.37-.39c.17-.27.31-.56.47-.83C55.54,8.88,55.56,8.87,57.91,8.62Z"/>
          </g>
          <g>
            <path class="cls-3" d="M21.86,87.94l2.1-.26a7.49,7.49,0,0,0-.14-1.28.61.61,0,0,1,.41-.76h0a1.81,1.81,0,0,0,1.12-1.35,2.35,2.35,0,0,1,1.74-1.7,1.83,1.83,0,0,0,1.4-1.24,2.59,2.59,0,0,1,1.85-1.71c.94-.26,1-.3.77-1.13a1.65,1.65,0,0,1,.62-1.83,2.41,2.41,0,0,1,.48-.3,13.57,13.57,0,0,0,2.43-1.09c.45-.33.57-1,.84-1.52a.25.25,0,0,0,0-.17c-.18-.95.32-1.42,1.35-1.79a3.42,3.42,0,0,0,1.76-1.42,16,16,0,0,1,4.08-4.48,1.71,1.71,0,0,0,.46-1.09,1.12,1.12,0,0,1,.66-.94l1.86-1c.89-.45,1.6-1,1.65-2A2.31,2.31,0,0,1,49,58.75c1-.36,1.66-1,1.56-2a1.17,1.17,0,0,1,.81-1.26,4.91,4.91,0,0,0,1.17-.79,2.32,2.32,0,0,0,.72-1c.3-1.18,1.47-1.82,2.22-2.71.19-.23.79-.22,1.21-.29a2,2,0,0,0,1.57-1.31,1,1,0,0,0,0-.24c-.2-.95.09-1.63,1.33-1.84a.63.63,0,0,0,.4-.41,2.1,2.1,0,0,1,1.58-1.36,1.25,1.25,0,0,0,.64-.58c.57-1,1-2.1,1.68-3.1.19-.29.79-.38,1.17-.6a2.78,2.78,0,0,0,.72-.6,4.37,4.37,0,0,0,.33-.69,2,2,0,0,1,1.73-1.27,1.4,1.4,0,0,0,1.47-1.13c.1-.51.63-.68,1.09-.85a.69.69,0,0,0,.54-.85c-.16-1.15-.15-1.15,1.15-1.58a1.2,1.2,0,0,0,.41-.2c.66-.54,1.36-1.07,2-1.66a1.08,1.08,0,0,0,.17-.87c-.08-.64.18-1,.93-1.16a1.2,1.2,0,0,0,1-.86,2.85,2.85,0,0,1,2.32-2,.91.91,0,0,0,.8-.69c.16-.63.35-1.24.57-1.85.07-.18.33-.32.52-.47h.13c1.31-.22,1.27-.23,1.56-1.34A2.36,2.36,0,0,1,84,21.6a23.74,23.74,0,0,0,2.28-1.08,2,2,0,0,0,1.3-2.12c-.06-.39.15-.65.58-.81.26-.09.49-.28.75-.38a3.32,3.32,0,0,0,2.15-1.77c.16-.39.75-.65,1.1-1a17.69,17.69,0,0,0,3.36-4.15c.24-.47,1-.76,1.57-1.09a1.64,1.64,0,0,1,.65-.13,1.48,1.48,0,0,0,1.32-.82,2.86,2.86,0,0,1,.88-.92c.64-.48,1.33-.92,2.14-1.48-.16.86.15,1.66-.57,2.32-.27.23-.46.54-.74.75a4.17,4.17,0,0,0-1.18,1.82c-.57,1.18-1,2.52-2.6,3.15a5.44,5.44,0,0,0-3.09,2.64A4.66,4.66,0,0,0,93.54,18a1.06,1.06,0,0,1-.61.82c-.88.55-1.72,1.17-2.56,1.77a1.42,1.42,0,0,0-.64,1.28,1.24,1.24,0,0,1-.81,1.23,1,1,0,0,0-.63,1,1.53,1.53,0,0,1-.88,1.33c-.43.25-.64.75-1,1.12a4.37,4.37,0,0,1-.68.68c-.21.16-.5.26-.73.41a2.69,2.69,0,0,0-1.51,1.88c-.23,2.07-1.64,3.4-3.82,4.19a1.79,1.79,0,0,0-.7.58,17.72,17.72,0,0,0-2.13,3.86,3.63,3.63,0,0,1-.78.92c-.18.17-.46.27-.61.46A4.13,4.13,0,0,1,73.29,41c-.67.2-.53.77-.57,1.19a1,1,0,0,1-.57.85,6.43,6.43,0,0,1-1,.54,2.12,2.12,0,0,0-1.59,1.93A5.43,5.43,0,0,1,69,47.2a3.16,3.16,0,0,1-1.67,1.29,1.3,1.3,0,0,0-.72.68,1.88,1.88,0,0,1-1.35,1.24.7.7,0,0,0-.61.73c0,1.19-.87,1.82-2.14,2-.81.13-1.13.47-1.24,1.16a3.11,3.11,0,0,1-1.54,2.35,2.27,2.27,0,0,0-.74.8A4.92,4.92,0,0,1,56.5,59.6,2.58,2.58,0,0,0,55,61.33a1.34,1.34,0,0,1-1,1c-1.28.41-1.75,1-1.66,2.21a1,1,0,0,1-.89,1.19,2.62,2.62,0,0,0-2,2,.88.88,0,0,1-.67.71,5.52,5.52,0,0,0-2.57,2.18,25.67,25.67,0,0,1-2.9,2.81,2.57,2.57,0,0,0-.56.85,7.58,7.58,0,0,0-.13.81A2.11,2.11,0,0,1,40.84,77a3.42,3.42,0,0,0-2.5,1.62A2.87,2.87,0,0,0,38,79.68c0,.95-.75,1.38-1.58,1.75-.43.2-1.08.23-1.3.52s-.09.83,0,1.25-.1.52-.49.56a2.31,2.31,0,0,0-2.26,2.16,1.08,1.08,0,0,1-.94,1,1.23,1.23,0,0,0-1.05,1,3.07,3.07,0,0,1-.33.82A2.24,2.24,0,0,1,28.25,90a.81.81,0,0,0-.77.64,3,3,0,0,1-1.92,2.06,1.68,1.68,0,0,0-1.07,1.46A1.35,1.35,0,0,1,24,95c-.94.64-2,1.2-2.93,1.83a1.78,1.78,0,0,0-.6.68c-.21.39-.3.84-.52,1.23a2.39,2.39,0,0,1-1.85,1c-.44.06-.64.24-.68.65-.09,1-.11,1-1.29,1.24-.54.09-.77.27-.74.76A1.51,1.51,0,0,1,14.34,104c-.32.14-.52.55-.69.87a1,1,0,0,1-1,.64,1.38,1.38,0,0,0-1.54,1.08c-.08.28-.41.52-.66.75s-.85.53-1,.88a3,3,0,0,1-2.25,1.67,2.88,2.88,0,0,0-1.79,1.19,4.4,4.4,0,0,1-1.1.87l-.24-.15c.29-.5.6-1,.86-1.5a6.28,6.28,0,0,0,.47-1.1c.1-.34.07-.7.17-1A1.71,1.71,0,0,1,7.37,107c.69,0,1-.3.92-.92A1,1,0,0,1,9,105c1.07-.38,1.19-1.29,1.5-2.08a9.51,9.51,0,0,1,.71-1.86,4.66,4.66,0,0,1,1.5-1.29,4.25,4.25,0,0,0,1.5-1.65,7.25,7.25,0,0,1,1.62-1.74c.41-.33.71-.62.6-1.12a1.59,1.59,0,0,1,.7-1.65c.73-.6,1.44-1.23,2.14-1.86a2.3,2.3,0,0,0,.59-.69,1.51,1.51,0,0,1,1.45-1c.72,0,.92-.37.73-1A8.18,8.18,0,0,1,21.86,87.94Z"/>
            <path class="cls-3" d="M103.17,28.53c1.42.31,2.58.07,3.29-1.07-.37.87-.69,1.74-1.12,2.58-.15.29-.59.46-.84.73a1.93,1.93,0,0,0-.45.77c-.14.47-.16,1-.3,1.45a3,3,0,0,1-1.15,1.23,29.1,29.1,0,0,0-2.6,2.23,1.4,1.4,0,0,0-.25.89A2,2,0,0,1,98.28,39c-1.09.37-1.35.94-1.09,1.83a.89.89,0,0,1,0,.23v.15a2.45,2.45,0,0,1-.54.18,2.09,2.09,0,0,0-2,1.81A5.84,5.84,0,0,1,92,46.7c-.52.38-.89.71-.86,1.32a1.36,1.36,0,0,1-.74,1.22,3.08,3.08,0,0,0-.82.83c-.63,1-1.73,1.65-2,2.77A4.13,4.13,0,0,0,85.37,55c0,.07-.19.11-.29.14a5.8,5.8,0,0,0-3,2.29,1.52,1.52,0,0,0-.3.82,1.66,1.66,0,0,1-.93,1.32,2.11,2.11,0,0,0-.67.87c-.19.37-.26.78-.42,1.15a2,2,0,0,1-1.4,1.24A.56.56,0,0,0,78,63c-.68,1.09-2.15,1.45-3,2.38a2.94,2.94,0,0,0-.64,1.24,5.33,5.33,0,0,1-2.47,3.2c-1,.63-2,1.24-2.09,2.49,0,.19-.39.46-.66.54A1.84,1.84,0,0,0,67.8,74a1.43,1.43,0,0,1-.84.72,2.23,2.23,0,0,0-1.68,2,6.58,6.58,0,0,0-.14.75c0,.36-.19.47-.65.42a2.25,2.25,0,0,0-2.33,1.48c-.24.72-.45,1.45-.74,2.16a1.22,1.22,0,0,1-.59.53c-.71.33-1.45.6-2.18.9a.55.55,0,0,0-.4.67s0,0,0,0c.34,1.23-.46,1.89-1.6,2.33a1.86,1.86,0,0,0-1.28,1.3c-.07.27-.4.51-.67.72a6.43,6.43,0,0,1-.71.32,2.86,2.86,0,0,0-1.72,2,2.93,2.93,0,0,1-1.63,2.23c-.38.2-.57.68-.89,1a3.55,3.55,0,0,1-.85.58c-.25.12-.57.14-.83.25-.81.38-1.6.75-1.64,1.71A3.56,3.56,0,0,1,44.17,99c-.75.39-1.37.76-1.45,1.57,0,.35-.32.4-.66.43a2.52,2.52,0,0,0-1.4.24c-.29.24-.14.78-.28,1.15a2.62,2.62,0,0,1-.61.79,1.58,1.58,0,0,1-.62.43,2.07,2.07,0,0,0-1.64,2c0,.14-.28.34-.47.38a2.1,2.1,0,0,0-1.59,1.33,2.11,2.11,0,0,1-2.28,1.45c-.66,0-.94.17-1,.77-.07,1.08-.71,1.4-2.32,1.31.14-.41.29-.82.44-1.23.06-.17.06-.4.19-.49,1-.62.85-1.46.68-2.33a1.8,1.8,0,0,1,1-1.68A2.58,2.58,0,0,0,33.55,104a2.57,2.57,0,0,1,.88-1,1.86,1.86,0,0,0,.85-1.26.81.81,0,0,1,.75-.77c1.39-.24,1.61-1.34,2.19-2.17a3,3,0,0,1,.81-.89,2,2,0,0,0,1-1.46,1.55,1.55,0,0,1,.59-.91c1.23-.84,2.39-1.66,1.48-3.21,2.09-.66,3.12-2.13,4.25-3.51.56-.68,1.13-1.35,1.7-2,.1-.13.25-.27.26-.4.11-1.41,1.33-2.29,2.3-3.19a6.65,6.65,0,0,0,2-2.28c.27-.68,1.27-1,2.18-1.25.4-.08.56-.26.5-.61v-.4c-.16-.63.18-1,.8-1.3a1.49,1.49,0,0,0,.73-.81,3.63,3.63,0,0,1,2.08-2.24c.13-.06.26-.16.4-.21,1.22-.39,2-1,1.55-2.23a.79.79,0,0,1,.4-.5A2.76,2.76,0,0,0,62.76,70a.31.31,0,0,1,.17-.24c1.46-.49,1.93-1.83,3.06-2.62A14.23,14.23,0,0,0,68.17,65a1.24,1.24,0,0,0,.26-.71,1.45,1.45,0,0,1,1-1.17c.26-.12.47-.3.72-.43a2.61,2.61,0,0,0,1.35-1.75A11.29,11.29,0,0,1,73,58.22c.18-.27.71-.37,1.07-.57.18-.1.44-.19.5-.34a4.08,4.08,0,0,1,2.28-1.88,3.07,3.07,0,0,0,1.66-1.53,1.49,1.49,0,0,1,.78-.57c.55-.24.92-.55.92-1.1a1.08,1.08,0,0,1,1-1.1c.66-.1.76-.41.64-.89v-.4a1.1,1.1,0,0,1,.65-1.28,2.06,2.06,0,0,0,.76-.79,2.44,2.44,0,0,1,1.32-1.17,1.65,1.65,0,0,0,.64-.4,7.55,7.55,0,0,1,3.11-2c.41-.16.64-.38.65-.78a3.36,3.36,0,0,1,1.77-2.79c.35-.23.47-.71.73-1.06a2.62,2.62,0,0,1,.66-.75c1-.62,2-1.2,3.06-1.79a1.76,1.76,0,0,0,.3-.24l3.67-3.54h0c1.49-.59,2.24-1.83,3.28-2.79a3.59,3.59,0,0,0,.62-1.29C103.08,29,103.13,28.75,103.17,28.53Z"/>
            <path class="cls-3" d="M4.87,89.14c.11-.87.18-1.66.32-2.43a1.2,1.2,0,0,1,.5-.65,1.52,1.52,0,0,0,.77-1.33,2.11,2.11,0,0,1,1.74-2,2.1,2.1,0,0,0,1.48-1.14.73.73,0,0,1,.25-.35A2.2,2.2,0,0,0,11.15,79a.54.54,0,0,1,.29-.35A5.12,5.12,0,0,0,14.05,75a1.29,1.29,0,0,1,1-1.12,1,1,0,0,0,1-1s0,0,0-.08a1,1,0,0,1,.82-1A1.58,1.58,0,0,0,18,70.62a5.36,5.36,0,0,1,2.6-2.88,2.14,2.14,0,0,0,1.16-1.47,1.15,1.15,0,0,1,.59-.69,1.57,1.57,0,0,0,1.1-1.4c0-.44.33-.67.68-.93a3,3,0,0,0,.94-1,1.42,1.42,0,0,1,1.26-1c.7-.07,1.07-.36,1-1A1.44,1.44,0,0,1,28,58.93a3.56,3.56,0,0,0,.81-1A3.1,3.1,0,0,1,31.37,56c.4,0,.57-.2.48-.53-.25-1,.34-1.64,1.38-1.94,1.35-.38,1.71-1.14,1.4-2.25V51a3.77,3.77,0,0,0,.58-.14,1.73,1.73,0,0,0,1.65-1.23.45.45,0,0,1,.12-.21c1-.85,1.94-1.72,3-2.53.32-.26.56-.44.54-.85a4,4,0,0,1,1.31-3,3.68,3.68,0,0,0,.39-.4,2.85,2.85,0,0,1,2.34-1.23,2,2,0,0,0,1.66-1.37,2.46,2.46,0,0,1,1.63-1.48c.24-.07.43-.36.56-.58.34-.54.65-1.09,1-1.65a3.75,3.75,0,0,0,.45-1,2.57,2.57,0,0,1,2.11-2c.59-.14.94-.4.94-1a1.22,1.22,0,0,1,1-1.18,6,6,0,0,0,2.27-1.86,9.54,9.54,0,0,1,1.51-1.4,7.68,7.68,0,0,0,2.47-2.78A13.82,13.82,0,0,1,62,22.86a2.45,2.45,0,0,1,1.34-.38,1.2,1.2,0,0,0,1.16-.78,2.15,2.15,0,0,1,.8-.94,1.86,1.86,0,0,0,1-1.28,1.26,1.26,0,0,1,.79-.94A5.26,5.26,0,0,0,70,15.88a1.71,1.71,0,0,1,1.46-1.15,1.18,1.18,0,0,0,1.11-.94,1.22,1.22,0,0,1,1-.89,1.11,1.11,0,0,0,1-1c.26-1.23,1.21-1.74,2.75-1.47-.83,1-.81,2.22-1,3.37a1.64,1.64,0,0,1-1.51,1.56c-.67.07-1,.39-1,1A2.3,2.3,0,0,1,73,17.84c-.4.48-.31.87-.52,1.28a1.36,1.36,0,0,1-.55.61,14,14,0,0,1-1.86.82.91.91,0,0,0-.71,1.06,1,1,0,0,0,0,.16c.22.7-.12,1-.83,1.25a2.77,2.77,0,0,0-1,.83c-.63.72-1.23,1.47-1.8,2.24a2.94,2.94,0,0,0-.5,1,4.88,4.88,0,0,1-3,3.48,1.31,1.31,0,0,0-.66.71,2.33,2.33,0,0,1-1.16,1.41,3.86,3.86,0,0,0-2,2.18c-.08.29-.59.55-1,.7a.81.81,0,0,0-.63.94c.17.76-.16,1.23-1,1.5a2.09,2.09,0,0,0-.77.61c-.69.68-1.31,1.43-2,2.07-.93.81-1.62,1.66-1.44,2.85.05.36-.1.56-.55.54h-.27c-1.31.12-1.28.13-1.55,1.26a1.22,1.22,0,0,1-.72.65,1.52,1.52,0,0,0-1.06,1.14,2.62,2.62,0,0,1-.74,1.06,6.76,6.76,0,0,1-1.26,1,1,1,0,0,0-.59,1A3.19,3.19,0,0,1,44,52.31a3.36,3.36,0,0,1-2.16,1.43,2.53,2.53,0,0,0-2.15,1.72c-.06.25-.22.48-.26.72a1.88,1.88,0,0,1-1.55,1.63,1.23,1.23,0,0,0-.57.58c-.26.46-.41.94-1,1.2a1.4,1.4,0,0,0-.92,1.19,1.24,1.24,0,0,1-.86,1.08c-.32.13-.6.36-.92.49A2.06,2.06,0,0,0,32,63.86a.89.89,0,0,1-.58.54,3,3,0,0,0-1.93,1.41,23.17,23.17,0,0,1-1.94,2.36A3.71,3.71,0,0,0,26.41,70a.87.87,0,0,1-.71.76c-.7.19-1.08.57-1.1,1.21s-.42.81-1.08.86c-1.07.08-1.07.1-1.17,1.06a.72.72,0,0,1-.67.81c-.81.15-1.21.57-1.18,1.29,0,.46-.21.7-.77.76-1.78.17-2.54,1.38-3.21,2.54a2.34,2.34,0,0,1-1.75,1.34c-.21,0-.54.35-.52.52.08,1.07-.63,1.64-1.61,2A2.52,2.52,0,0,0,11,85a2.63,2.63,0,0,1-.9,1.34,35.3,35.3,0,0,1-3.52,2.41A5.6,5.6,0,0,1,4.87,89.14Z"/>
            <path class="cls-3" d="M106.29,51.09c-.54.87-1,1.61-1.45,2.36a2.32,2.32,0,0,0-.29.85,5.48,5.48,0,0,0,0,.81c0,1.12-.33,1.58-1.57,1.85-.66.14-.84.39-.75,1,.19,1.17-.23,1.8-1.52,2.23-.73.24-1.12.55-.92,1.26s-.12,1-.72,1.27a6.63,6.63,0,0,0-1.51,1.06,2,2,0,0,0-.48,1,1.26,1.26,0,0,1-.71.86c-.41.19-.77.47-1.17.68a2.45,2.45,0,0,0-1.34,1.59.93.93,0,0,1-.36.53,5,5,0,0,0-2.12,3.26c-.43,1.69,0,1.27-2,1.58a1.85,1.85,0,0,0-1.28,1.39.54.54,0,0,0,0,.18c.23,1-.13,1.66-1.43,1.78-.16,0-.33.23-.42.39a4.17,4.17,0,0,0-.36.81,2.19,2.19,0,0,1-2.15,1.81c-.15,0-.3.22-.4.37a.5.5,0,0,0-.07.34c.13.74-.24,1.15-1.09,1.29S81,82.44,80.63,83a10.44,10.44,0,0,1-2.53,2.85,1.08,1.08,0,0,0-.34.78,1.59,1.59,0,0,1-1,1.4c-1,.51-2,1.06-2.94,1.63a.72.72,0,0,0-.28.56c0,.48.24,1,0,1.41s-.92.42-1.41.62l-.24.1c-.88.3-1.43.77-1.2,1.66.13.51-.12.79-.74.87a3.49,3.49,0,0,0-1.14.34c-.69.37-1.34.79-1.09,1.66.19.63-.15,1-.84,1.32a6.74,6.74,0,0,0-.91.59,12.13,12.13,0,0,1-1.6.93c-.48.2-.76.44-.77.9a1,1,0,0,1-.93,1.07h-.21a1,1,0,0,0-1.13.85.34.34,0,0,0,0,.1.87.87,0,0,1-.92.82h0a2.63,2.63,0,0,0-1.72.83,5,5,0,0,1-.85.66,2.2,2.2,0,0,0-1,1.31,3.83,3.83,0,0,1-.3.65,1.92,1.92,0,0,1-2,1.27,5.75,5.75,0,0,0-1.42.33,1.83,1.83,0,0,1,1-2.38c.71-.36,1-.76.66-1.41s-.09-1,.63-1.21.91-.74,1.15-1.27a1.51,1.51,0,0,1,.36-.54,9,9,0,0,0,2.79-4,1.06,1.06,0,0,1,.58-.54,3,3,0,0,0,2.15-2.4,6.05,6.05,0,0,1,.2-.73,1.68,1.68,0,0,1,1.71-1.36,1.13,1.13,0,0,0,1.1-.79c.07-.21.26-.38.3-.59a2.52,2.52,0,0,1,1.79-2,2.1,2.1,0,0,0,1-1.44,1.64,1.64,0,0,1,1.63-1.51,1.64,1.64,0,0,0,.83-.51,3.35,3.35,0,0,0,1.18-3.54,5.52,5.52,0,0,1,1-.28A2.16,2.16,0,0,0,75,81a1,1,0,0,0,.11-.82c-.26-1,.43-1.47,1.23-1.92a1.06,1.06,0,0,1,.25-.09,1.63,1.63,0,0,0,1.56-1.7h0A2.56,2.56,0,0,1,78.88,75c.18-.2.69-.2,1.05-.25,1-.12,1-.11,1-1a1.23,1.23,0,0,1,.86-1.23,3,3,0,0,0,.9-.81,15.48,15.48,0,0,1,1.1-1.38,14.19,14.19,0,0,0,2-2.37,3.16,3.16,0,0,1,1.65-1.27A5.82,5.82,0,0,0,90,64.85a5.57,5.57,0,0,0,1.74-2.76.87.87,0,0,1,.57-.47,3,3,0,0,0,1.8-1.21,1.92,1.92,0,0,1,.74-.55,4.61,4.61,0,0,0,2.3-2.14A1.37,1.37,0,0,1,98.24,57a.92.92,0,0,0,.9-.94V56c.06-1.13-.11-.87,1.17-1.18a13.67,13.67,0,0,0,1.85-.68.9.9,0,0,0,.37-.38c.17-.28.31-.56.47-.84C103.92,51.34,103.94,51.33,106.29,51.09Z"/>
            <path class="cls-3" d="M56.07,8.94c-.54.88-1,1.61-1.45,2.36a2.52,2.52,0,0,0-.29.85,5.48,5.48,0,0,0,0,.81c0,1.12-.33,1.58-1.57,1.85-.66.15-.84.4-.75,1,.19,1.18-.22,1.8-1.51,2.23-.74.25-1.13.56-.93,1.27s-.12,1-.72,1.27a6.59,6.59,0,0,0-1.51,1.05,2,2,0,0,0-.48,1,1.2,1.2,0,0,1-.71.85c-.41.2-.77.47-1.17.68a2.41,2.41,0,0,0-1.33,1.59.91.91,0,0,1-.37.53,5,5,0,0,0-2.12,3.26c-.43,1.69,0,1.27-2,1.58a1.83,1.83,0,0,0-1.28,1.4.49.49,0,0,0,0,.17c.22,1-.14,1.66-1.44,1.78-.16,0-.33.23-.42.39a4.17,4.17,0,0,0-.36.81,2.19,2.19,0,0,1-2.15,1.81c-.15,0-.3.23-.4.37a.45.45,0,0,0-.06.34c.12.74-.25,1.15-1.1,1.3s-1.21.84-1.59,1.41a10.26,10.26,0,0,1-2.53,2.84,1.08,1.08,0,0,0-.34.78,1.59,1.59,0,0,1-1,1.41c-1,.5-2,1.06-2.94,1.63a.69.69,0,0,0-.28.56c0,.47.25,1.05,0,1.4s-.92.42-1.41.62l-.24.1c-.88.3-1.42.77-1.19,1.67.13.51-.13.78-.75.87a3.25,3.25,0,0,0-1.14.33c-.69.37-1.33.79-1.09,1.66.19.63-.15,1-.84,1.32a7.94,7.94,0,0,0-.91.6,11,11,0,0,1-1.6.92c-.48.21-.76.44-.77.9,0,.64-.31,1.07-1.14,1.06a1,1,0,0,0-1.13.85.34.34,0,0,0,0,.1c-.05.49-.33.77-.92.82a2.78,2.78,0,0,0-1.72.83,3.88,3.88,0,0,1-.85.66,2.25,2.25,0,0,0-1,1.32,3.73,3.73,0,0,1-.3.64,1.91,1.91,0,0,1-2,1.27,5.35,5.35,0,0,0-1.42.34,1.84,1.84,0,0,1,1-2.39c.7-.35.94-.75.65-1.41s-.09-1,.63-1.21.92-.74,1.16-1.26a1.62,1.62,0,0,1,.35-.54,9,9,0,0,0,2.79-4A1,1,0,0,1,10,55a3,3,0,0,0,2.15-2.39,6.21,6.21,0,0,1,.2-.74,1.68,1.68,0,0,1,1.71-1.36,1.11,1.11,0,0,0,1.1-.79c.07-.2.26-.38.3-.58a2.53,2.53,0,0,1,1.79-2,2.07,2.07,0,0,0,1-1.44,1.64,1.64,0,0,1,1.63-1.51,1.62,1.62,0,0,0,.83-.5,3.36,3.36,0,0,0,1.18-3.54A6.22,6.22,0,0,1,23,39.84a2.17,2.17,0,0,0,1.74-1.06,1,1,0,0,0,.11-.82c-.26-1,.43-1.46,1.23-1.91a1.09,1.09,0,0,1,.25-.1,1.61,1.61,0,0,0,1.56-1.66v0a2.44,2.44,0,0,1,.78-1.38c.18-.2.69-.21,1.06-.25,1-.13,1-.12,1-1a1.24,1.24,0,0,1,.86-1.23,2.9,2.9,0,0,0,.9-.81c.39-.44.68-.95,1.1-1.38a13.29,13.29,0,0,0,2-2.37,3.21,3.21,0,0,1,1.65-1.27,6,6,0,0,0,2.46-1.9,5.54,5.54,0,0,0,1.75-2.77c0-.18.33-.41.56-.47a3,3,0,0,0,1.8-1.21,1.92,1.92,0,0,1,.74-.55,4.59,4.59,0,0,0,2.3-2.13A1.37,1.37,0,0,1,48,14.85a.91.91,0,0,0,.91-.93v-.07c0-1.13-.12-.86,1.16-1.18A12.24,12.24,0,0,0,51.94,12a.93.93,0,0,0,.37-.39c.17-.27.31-.56.47-.84C53.7,9.2,53.72,9.18,56.07,8.94Z"/>
          </g>
        </g>
      </g>
    </g>
  </g>
</svg>
