<svg xmlns="http://www.w3.org/2000/svg" viewBox="0 0 132.68 117.34">
  <defs>
    <style>
      .cls-1 {
        fill: #4c4c4c;
      }
    </style>
  </defs>
  <title>bear-scratch</title>
  <g id="Layer_2" data-name="Layer 2">
    <g id="Resolve">
      <g id="paw">
        <path class="cls-1" d="M102.06,102.5c0,3.29-.46,14.84-13.22,14.84-6.83,0-10-10.32-25.08-10.32-10,0-8.21,3.71-26.89,3.71S7.22,102.5,7.22,90.12c0-14.87,10-10.09,20.08-17.34,11-7.83,10-14,23.71-14,11.37,0,17.76,14.09,25.51,16.91,11.4,4.13,25.54,18.17,25.54,26.83ZM19.19,54.05c.28-7-3-13-9.29-13C3.29,41,0,47,0,51.88c0,6.79,4.19,13.3,9.9,13.3s9-4.06,9.29-11.13Zm47.36-6.51C72.23,47.54,79.74,38.05,80,31s-.58-14.39-6.88-14.39c-6.58,0-15.87,9-15.87,16.28,0,6.79,3.6,14.64,9.29,14.64ZM89.33,64.9c8.37,0,13.47-8.4,13.78-15.44s-1.51-13-7.79-13C85.12,36.44,80,45.37,80,52.69c0,6.79,3.6,12.21,9.32,12.21ZM116,59.22c-10.18,0-16.17,10.55-16.17,17.9,0,6.79,4.77,11.66,10.48,11.66,8.4,0,13.78-7.6,14.08-14.64S122.29,59.22,116,59.22ZM35.06,50c5.72,0,10.21-3.79,10.21-10.85,0-11.94,6-23.87-.31-23.87-12.58,0-19.77,16.55-19.77,21.42,0,6.79,4.18,13.3,9.87,13.3ZM10.72,37c1.76.42,3.4,1.23,3.34-1-.08-3.49.31-9.17-1.58-9.31-1.15-.09-4.32,5.89-5.23,8.86s1.45.95,3.47,1.46ZM46.21,9.63c1.92.53,3.7,1.41,3.8-.7C50.19,5.64,51.08.28,49,0c-1.26-.16-5.26,5.24-6.49,8S44,9,46.21,9.63Zm33.8,2c1.74.44,3.4,1.23,3.32-1C83.18,6.56,82.87,1,81,.85c-1.15-.08-3.68,5-4.59,8-.85,2.81,1.6,2.22,3.61,2.72ZM107.85,27c1.74.44,3.43,1.25,3.35-1-.16-4-1.23-11.52-3.12-11.66-1.12-.09-2.8,5.89-4.15,9.12-1.15,2.72,1.91,3.05,3.92,3.53Zm21.84,16.84c-1.12-.1-2.9,4.08-3.82,7.06-.85,2.82,1.48,2.52,3.49,3,1.74.44,3.42,1.25,3.32-1-.15-4-1.07-8.94-3-9.07Z"/>
      </g>
    </g>
  </g>
</svg>
