<svg xmlns="http://www.w3.org/2000/svg" viewBox="0 0 94.88 118.98">
  <defs>
    <style>
      .cls-1 {
        fill: #4c4c4c;
      }
    </style>
  </defs>
  <title>gorilla-scratch</title>
  <g id="Layer_2" data-name="Layer 2">
    <g id="Reason">
      <g id="Paw">
        <path class="cls-1" d="M53.14,57.77c2.61.59,5,1.21,7.43,1.67,1.76.34,3.07,3,5.45.71.92-.89,4-1.21,4.28-.77.87,1.58,1.76,4,1.13,5.39-2,4.62-4.23,9.17-8.44,12.57-2.5,2-4,5.33-6,8-3.37,4.28-7.13,8-12.61,9.71a117.43,117.43,0,0,0-11.79,4.8c-3.76,1.65-4.75,4.37-2.45,7.92l-2.86,1.37c.82,1.29,1.28,2.55,2.17,3.29,2.81,2.34,5.56,5,8.81,6.47,1.43.66,4-1.4,6-1.81,11.48-2.24,17.94-9.7,21.72-20.22,1.16-3.25,2.87-6.29,4.23-9.47,2.7-6.35,5.21-12.8,8-19.09,2.07-4.56,3.61-10,7.09-13.13a37.35,37.35,0,0,0,8.73-12.3,10,10,0,0,0-.23-8.17c-.88-1.46-5.29-2.29-7-1.34-1.88,1-2.59,4.37-3.54,6.81A2.75,2.75,0,0,0,83.67,42c-1.77,2.52-3.9,4.26-4.21,6.27-.71,4.49-4,5.3-7.77,6.48A21.15,21.15,0,0,1,73,47.14c1.06-3,2.47-5.9,3.48-8.93.15-.46-1-1.75-1.69-2-1.06-.34-3-.49-3.37,0-2,3.33-4.44,6.7-5.22,10.38-.73,3.42-2.15,3.73-4.87,3.5-1.08-.1-2.63,0-3.23.6C56.54,52.46,55.37,54.54,53.14,57.77Zm-36,15.11c-1.46-1.1-3.21-1.74-3.47-2.75-.93-3.66-4.65-6.2-3.9-10.57a5.94,5.94,0,0,0-1.32-4.7,15.93,15.93,0,0,0-6.35-3C1.74,51.82-.28,55,0,56.32a37.89,37.89,0,0,0,3.88,9.34c2.14,3.81,5.24,7.22,3.93,12.11C6.74,81.84,6,85.18,9.29,89.41a49.93,49.93,0,0,0,12.17,11.14c1.29.86,4.76,1,5,.4,1.29-2.71,1.82-5.78,2.6-8.66l-3.58-1.68,2.31-2.19A65.08,65.08,0,0,1,24,82.6c-1.12-2.16-1.54-4,2.28-3.46,1.39.19,4.14-1.11,4.33-2.11,1.25-6.51,1-13.06-1.76-19.24-.31-.68-2.32-1.24-3.21-.93C20.41,58.69,15.89,67,17.1,72.88ZM56.86,51.3c-.72-2-.81-3.55-1.63-4.26-2.36-2-6.84-.82-7.89-5.08a3.38,3.38,0,0,0-1.93.11c-4,1.84-7.84,3.88-11.85,5.61s-3.62,4.54-2.91,7.73c1.2-.4,2.45-1.25,3-.92a41.79,41.79,0,0,1,7,4.82c3.27,2.9,5.59,2.65,7.4-1.41,1.05-2.36,1.73-4.89,2.52-7.19ZM72.55,32.74l4.79,3.06c4.34-2.42,6-6.65,4.45-11.06,6.88-.69,7.49-5.49,4.45-10.33-.72-1.15-1.85-2.82-2.85-2.86-4.09-.18-7.91,6.27-6.46,10.16a5.07,5.07,0,0,1-.13,3.6C75.61,27.83,74.05,30.17,72.55,32.74Zm-28-12.91a8.68,8.68,0,0,0,2.36-.64c2.59-1.56,4.27-3.94,3.46-6.91-.53-1.92-1.93-4.22-3.58-5-1.2-.59-3.89.51-5.16,1.68-3.79,3.47-3.67,12.54.09,15.94.85.76,2.5.62,3.78.9A12.59,12.59,0,0,0,46,22.5C45.89,21.66,45.16,20.89,44.57,19.83ZM67.22,7.52C66.4,3.5,63.88.11,61.29,0c-3.2-.13-6.46,3.09-6.48,6.42,0,2.95,4.19,7.69,7.07,6.83C64,12.6,65.46,9.52,67.22,7.52ZM60,14.77c-.39,3.09-.78,5.71-1,8.35,0,.33,1.29,1.17,1.47,1.05,1.19-.85,2.66-1.71,3.2-2.93.42-1-.16-2.56-.69-3.69C62.56,16.72,61.53,16.18,60,14.77Z"/>
        <path class="cls-1" d="M53.14,57.77c2.23-3.23,3.4-5.31,5-7,.6-.65,2.15-.7,3.23-.6,2.72.23,4.14-.08,4.87-3.5.78-3.68,3.2-7,5.22-10.38.32-.53,2.31-.38,3.37,0,.74.23,1.84,1.52,1.69,2-1,3-2.42,5.92-3.48,8.93a21.15,21.15,0,0,0-1.33,7.6c3.78-1.18,7.06-2,7.77-6.48.31-2,2.44-3.75,4.21-6.27a2.75,2.75,0,0,1-.29-1.86c1-2.44,1.66-5.76,3.54-6.81,1.68-1,6.09-.12,7,1.34a10,10,0,0,1,.23,8.17,37.35,37.35,0,0,1-8.73,12.3c-3.48,3.15-5,8.57-7.09,13.13C75.46,74.55,73,81,70.25,87.35c-1.36,3.18-3.07,6.22-4.23,9.47-3.78,10.52-10.24,18-21.72,20.22-2.1.41-4.62,2.47-6,1.81-3.25-1.5-6-4.13-8.81-6.47-.89-.74-1.35-2-2.17-3.29l2.86-1.37c-2.3-3.55-1.31-6.27,2.45-7.92A117.43,117.43,0,0,1,44.37,95c5.48-1.72,9.24-5.43,12.61-9.71,2.06-2.62,3.51-5.92,6-8,4.21-3.4,6.4-8,8.44-12.57.63-1.42-.26-3.81-1.13-5.39-.24-.44-3.36-.12-4.28.77-2.38,2.27-3.69-.37-5.45-.71C58.15,59,55.75,58.36,53.14,57.77Z"/>
        <path class="cls-1" d="M17.1,72.88c-1.21-5.91,3.31-14.19,8.5-16,.89-.31,2.9.25,3.21.93,2.75,6.18,3,12.73,1.76,19.24-.19,1-2.94,2.3-4.33,2.11-3.82-.53-3.4,1.3-2.28,3.46a65.08,65.08,0,0,0,3.87,5.82l-2.31,2.19,3.58,1.68c-.78,2.88-1.31,5.95-2.6,8.66-.28.58-3.75.46-5-.4A49.93,49.93,0,0,1,9.29,89.41C6,85.18,6.74,81.84,7.84,77.77c1.31-4.89-1.79-8.3-3.93-12.11A37.89,37.89,0,0,1,0,56.32c-.31-1.3,1.71-4.5,2-4.42a15.93,15.93,0,0,1,6.35,3,5.94,5.94,0,0,1,1.32,4.7c-.75,4.37,3,6.91,3.9,10.57C13.89,71.14,15.64,71.78,17.1,72.88Z"/>
        <path class="cls-1" d="M56.86,51.3l-6.3-.59C49.77,53,49.09,55.54,48,57.9c-1.81,4.06-4.13,4.31-7.4,1.41a41.79,41.79,0,0,0-7-4.82c-.57-.33-1.82.52-3,.92-.71-3.19-1-6,2.91-7.73s7.88-3.77,11.85-5.61A3.38,3.38,0,0,1,47.34,42c1,4.26,5.53,3.07,7.89,5.08C56.05,47.75,56.14,49.32,56.86,51.3Z"/>
        <path class="cls-1" d="M72.55,32.74c1.5-2.57,3.06-4.91,4.25-7.43a5.07,5.07,0,0,0,.13-3.6c-1.45-3.89,2.37-10.34,6.46-10.16,1,0,2.13,1.71,2.85,2.86,3,4.84,2.43,9.64-4.45,10.33,1.57,4.41-.11,8.64-4.45,11.06Z"/>
        <path class="cls-1" d="M44.57,19.83c.59,1.06,1.32,1.83,1.41,2.67a12.59,12.59,0,0,1-.46,3.28c-1.28-.28-2.93-.14-3.78-.9-3.76-3.4-3.88-12.47-.09-15.94,1.27-1.17,4-2.27,5.16-1.68,1.65.8,3,3.1,3.58,5,.81,3-.87,5.35-3.46,6.91A8.68,8.68,0,0,1,44.57,19.83Z"/>
        <path class="cls-1" d="M67.22,7.52c-1.76,2-3.18,5.08-5.34,5.73-2.88.86-7.09-3.88-7.07-6.83,0-3.33,3.28-6.55,6.48-6.42C63.88.11,66.4,3.5,67.22,7.52Z"/>
        <path class="cls-1" d="M60,14.77c1.58,1.41,2.61,1.95,3,2.78.53,1.13,1.11,2.72.69,3.69-.54,1.22-2,2.08-3.2,2.93-.18.12-1.5-.72-1.47-1.05C59.17,20.48,59.56,17.86,60,14.77Z"/>
      </g>
    </g>
  </g>
</svg>
